<svg width="354" height="310" viewBox="0 0 354 310" fill="none" xmlns="http://www.w3.org/2000/svg">
<circle cx="168" cy="158" r="129" fill="#7622EE" fill-opacity="0.07"/>
<g filter="url(#filter0_d_101_3)">
<path d="M277.202 170.233C271.408 174.708 264.288 175.937 257.512 177.855C244.009 181.691 230.555 185.625 217.003 189.313C208.115 191.723 200.014 189.903 192.894 184.051C192.599 183.805 192.305 183.609 191.519 182.969C192.697 186.362 193.679 189.165 194.661 192.018C198.148 202.393 196.233 211.638 188.966 219.801C178.261 231.849 167.606 243.897 157 256.043C149.635 264.452 140.6 267.599 129.699 265.239C112.317 261.403 94.9844 257.518 77.6514 253.486C68.2729 251.322 61.7423 245.569 58.5998 236.521C53.0513 220.637 47.6009 204.754 42.3961 188.723C39.3027 179.183 41.4141 170.381 48.092 162.906C60.0238 149.58 72.0537 136.253 84.231 123.124C90.8598 115.895 99.3053 113.092 108.929 115.01C120.37 117.272 131.762 119.927 143.153 122.484C144.97 122.878 145.707 122.73 146.198 120.714C150.519 103.503 154.84 86.3409 159.455 69.2281C162.009 59.6881 168.539 53.7872 177.869 50.8859C179.931 50.2466 182.189 50.0499 184.104 48.968C191.077 47.542 197.853 45.3291 204.727 43.5588C213.664 41.2476 222.502 38.4938 231.537 36.576C239.786 34.8057 247.348 37.1661 253.535 42.9687C264.19 53.0495 274.599 63.3271 285.107 73.5063C288.053 76.3584 291.245 78.9647 293.749 82.2102C299.052 89.0455 300.771 96.7168 298.708 105.126C294.731 121.648 290.558 138.171 286.629 154.743C285.009 160.89 281.916 166.004 277.202 170.233ZM170.307 123.124C172.566 125.779 172.958 129.025 172.762 132.319C172.664 133.647 172.958 134.68 173.793 135.712C175.757 138.073 176.985 140.827 177.967 143.728C180.569 151.202 183.417 158.628 185.627 166.201C187.198 171.708 190.144 176.036 194.416 179.626C197.657 182.33 201.045 184.592 205.464 184.691C208.115 184.74 210.718 185.428 213.467 184.641C231.046 179.675 248.723 174.954 266.301 169.84C273.814 167.676 279.019 162.562 280.934 154.792C285.156 137.827 289.232 120.812 293.307 103.798C294.338 99.5689 294.24 95.3891 292.571 91.2584C291.736 88.062 289.87 85.5049 287.562 83.2429C275.434 71.5393 263.208 59.934 251.129 48.1812C244.598 41.8377 236.938 39.969 228.345 42.2803C212.24 46.5585 196.184 50.935 180.127 55.3608C175.364 56.6885 170.847 58.6063 167.655 62.6878C165.348 64.8023 163.973 67.5069 163.187 70.4574C158.719 87.6194 154.3 104.831 149.831 121.993C149.488 123.271 149.537 123.96 151.059 124.205C153.858 124.697 156.656 125.435 159.406 126.074C160.143 126.271 160.683 126.123 161.076 125.533C162.205 127.894 163.776 128.238 165.446 126.172C166.87 124.55 168.343 123.517 170.307 123.124ZM168.932 138.86C167.95 134.68 164.758 132.27 159.995 132.123C158.277 131.336 156.264 131.336 154.594 130.598C151.648 129.271 148.407 131.139 145.559 129.566C145.609 128.238 144.577 128.287 143.743 128.09C131.958 125.484 120.174 122.878 108.389 120.37C102.742 119.14 97.3413 119.878 92.4802 123.173C90.6634 123.714 89.4849 125.091 88.2574 126.369C77.1112 138.663 66.0142 151.006 54.7698 163.25C50.5471 167.873 46.8153 172.594 46.3243 179.134C45.1458 178.888 45.0476 179.576 44.9985 180.511C44.9003 183.609 45.686 186.51 46.668 189.362C51.7746 204.311 56.8321 219.26 61.9387 234.16C64.5411 241.733 69.7459 246.503 77.5041 248.323C87.128 250.585 96.752 252.65 106.425 254.814C115.018 256.732 123.611 258.748 132.253 260.371C136.279 261.108 140.404 260.862 143.988 258.305C146.541 258.158 148.456 256.732 150.126 255.01C153.661 251.372 157.049 247.634 160.437 243.848C168.637 234.652 176.739 225.309 184.988 216.162C190.881 209.622 192.55 202.049 189.653 194.034C184.448 179.724 179.833 165.217 174.873 150.809C173.695 147.416 172.762 143.925 170.896 140.777C170.454 140.138 170.356 138.81 168.932 138.86Z" fill="#E9DCFF"/>
<path d="M167.704 62.6386C170.896 58.5571 175.364 56.6393 180.176 55.3116C196.233 50.8858 212.289 46.5093 228.394 42.2311C237.036 39.969 244.647 41.7885 251.178 48.1321C263.257 59.8848 275.483 71.4901 287.611 83.1937C289.919 85.4557 291.785 88.0128 292.62 91.2092C292.669 94.0122 290.852 94.1597 288.692 94.1597C287.268 94.1597 285.795 94.5531 284.371 94.9465C271.653 98.3395 258.936 101.683 246.317 105.273C238.902 107.339 230.997 108.273 224.712 113.387C217.788 112.649 212.24 109.551 207.575 104.388C204.433 100.946 200.946 97.8478 197.558 94.6514C188.72 86.2917 180.078 77.6861 171.485 69.0805C169.718 67.3102 168.097 65.2941 167.704 62.6386ZM217.396 94.1105C219.753 98.6838 224.024 99.7656 228.591 100.061C231.439 100.257 234.336 100.011 236.005 97.061C236.153 95.2415 236.153 93.4712 234.532 92.1435C230.359 88.8488 225.743 87.6194 220.587 89.1439C217.936 89.9306 217.199 91.2584 217.396 94.1105ZM221.815 75.4241C223.828 79.5548 229.082 82.0627 234.581 81.5218C236.938 81.3251 239.295 81.03 240.474 78.4729C241.456 76.7026 240.474 75.3257 239.393 74.0964C236.3 70.5558 228.984 68.8838 224.663 70.7033C222.6 71.5884 221.324 72.9653 221.815 75.4241ZM228.247 55.7542C230.506 61.2617 240.965 64.2122 245.58 60.5733C246.317 59.9832 246.857 59.2947 246.955 58.3604C247.446 56.836 246.562 55.6558 245.727 54.6231C242.781 51.0826 235.072 49.4598 230.85 51.3776C228.935 52.2136 227.756 53.4921 228.247 55.7542Z" fill="url(#paint0_linear_101_3)"/>
<path d="M145.609 129.565C148.456 131.139 151.697 129.27 154.643 130.598C156.313 131.336 158.326 131.336 160.044 132.123C157.295 134.532 157.688 136.302 161.174 137.63C163.58 138.515 163.776 139.155 162.205 141.318C161.91 141.712 161.616 142.105 161.321 142.498C159.21 145.301 159.553 146.58 162.942 147.859C162.843 148.547 162.352 149.039 161.959 149.481C152.679 159.906 143.399 170.381 134.02 180.707C132.695 182.183 131.713 184.1 129.749 184.887C129.847 183.412 129.749 182.035 128.177 181.347C126.557 180.609 125.575 181.74 124.593 182.773C123.464 183.953 122.334 185.133 121.156 186.264C118.455 188.821 115.46 190.395 111.483 190.1C107.113 189.755 102.988 188.428 98.7652 187.543C95.5245 186.854 94.3952 187.985 94.8371 191.329C94.4934 191.329 94.1496 191.427 93.855 191.329C79.861 188.28 65.8669 185.231 51.8728 182.084C49.8106 181.642 47.8465 180.756 46.3734 179.085C46.8644 172.544 50.5962 167.774 54.819 163.201C66.0142 150.957 77.1113 138.614 88.3065 126.32C89.485 124.992 90.7125 123.615 92.5293 123.124C93.0694 123.025 93.7077 123.074 94.1987 122.878C98.8634 120.862 103.675 120.763 108.586 121.796C113.545 122.829 118.455 124.009 123.414 124.992C130.78 126.517 138.096 128.434 145.609 129.565ZM103.332 176.331C103.479 176.478 103.675 176.675 103.823 176.822L103.774 176.921C104.314 177.757 105.148 178.052 106.032 178.249C110.746 179.183 114.871 177.855 118.406 174.61C120.075 173.085 120.812 171.167 120.026 168.856C119.486 167.43 118.259 166.742 116.884 166.447C111.826 165.316 107.505 166.84 103.921 170.43C102.448 171.905 101.859 173.774 102.841 175.839C103.037 175.986 103.184 176.134 103.332 176.331ZM109.322 131.483H109.371C109.224 130.795 108.684 130.401 108.144 130.008C103.921 127.156 94.1987 130.254 92.382 135.024C91.5472 137.188 92.2347 138.663 94.5916 139.941C99.0598 141.761 105.836 139.892 108.684 136.057C109.617 134.827 110.108 133.499 109.715 131.926C109.519 131.778 109.42 131.631 109.322 131.483ZM96.0646 146.236H96.1137C95.9664 145.203 95.1808 144.76 94.3461 144.367C89.976 142.154 81.6777 144.81 79.4191 149.088C78.1424 151.497 78.7316 153.317 81.2849 154.694C85.8514 156.661 92.873 154.645 95.6718 150.612C96.5065 149.383 96.752 148.104 96.4574 146.678C96.4083 146.482 96.4083 146.236 96.0646 146.236ZM130.78 147.859C133.726 149.973 141.238 148.645 144.676 145.105C146.149 143.58 147.032 142.007 146.492 139.892C146.149 138.663 145.167 138.073 144.135 137.581C139.864 135.762 132.351 138.073 129.798 142.007C128.276 144.269 128.619 146.187 130.78 147.859ZM117.62 162.513C122.187 165.266 130.976 162.66 133.186 157.89C133.677 156.857 134.07 155.776 133.431 154.595C133.382 153.219 132.351 152.678 131.32 152.186C126.901 150.071 118.75 152.727 116.393 157.054C115.165 159.218 115.558 160.89 117.62 162.513ZM67.2418 168.856C71.6118 171.905 80.3029 169.79 83.0035 164.971C83.74 163.693 84.0346 162.414 83.3963 160.988C82.9544 159.562 81.8741 159.021 80.5484 158.579C76.1783 157.202 69.6969 159.267 66.9471 162.955C65.4741 164.971 65.5723 166.889 67.2418 168.856Z" fill="#EAC8FE"/>
<path d="M129.699 184.937C131.664 184.101 132.646 182.232 133.971 180.757C143.35 170.381 152.63 159.956 161.91 149.531C162.352 149.039 162.843 148.596 162.892 147.908C166.182 145.793 168.097 142.695 168.883 138.909C170.258 138.909 170.405 140.187 170.896 141.023C172.762 144.171 173.695 147.662 174.873 151.055C179.833 165.463 184.448 179.97 189.653 194.28C192.55 202.295 190.93 209.868 184.988 216.408C176.69 225.555 168.637 234.898 160.437 244.094C157.049 247.88 153.661 251.618 150.126 255.257C148.456 256.978 146.541 258.404 143.988 258.551C139.814 255.994 137.212 252.208 135.69 247.684C130.485 232.489 125.329 217.294 120.174 202.099C119.339 199.689 118.799 197.23 118.602 194.673C122.678 192.264 126.311 189.362 129.258 185.625C129.601 185.576 129.699 185.428 129.65 185.084L129.699 184.937ZM151.55 200.968C151.501 202.148 151.697 203.23 151.992 204.361C153.121 208.491 156.509 209.475 159.504 206.426C161.861 204.016 163.334 201.164 163.727 197.82C164.022 195.46 163.58 193.247 161.959 191.428C159.995 189.116 157.884 188.969 155.625 191.083C152.777 193.739 151.795 197.23 151.55 200.968ZM179.489 207.016C179.538 208.836 179.734 210.704 181.846 211.098C183.859 211.442 184.694 209.819 185.332 208.295C186.167 206.426 186.56 204.41 185.774 202.394C184.988 200.328 183.417 199.935 181.748 201.361C180.029 202.885 179.538 204.902 179.489 207.016ZM170.651 213.753C170.7 212.229 169.914 210.901 168.981 210.852C167.655 210.753 165.789 213.556 165.839 215.572C165.888 216.753 166.231 217.884 167.704 218.031C169.177 218.08 170.651 215.917 170.651 213.753ZM183.81 192.214C183.564 191.231 183.319 190.051 181.944 189.854C180.618 189.657 178.949 192.264 179.096 194.378C179.194 195.657 179.538 196.886 181.158 196.886C182.484 196.837 183.859 194.427 183.81 192.214ZM173.155 221.67C173.057 220.588 173.106 219.113 171.485 218.769C170.258 218.523 168.736 220.834 168.785 222.85C168.785 224.129 168.588 225.653 170.454 225.899C171.78 226.096 173.106 224.129 173.155 221.67ZM175.61 203.18C175.463 202.197 176.003 200.672 174.137 200.476C172.713 200.328 171.191 202.492 171.191 204.656C171.191 205.885 171.338 207.262 172.811 207.557C174.137 207.852 175.61 205.492 175.61 203.18ZM155.429 238.193C155.527 239.176 155.331 240.652 156.853 240.553C158.915 240.406 159.112 238.488 159.308 236.914C159.455 235.685 158.964 234.308 157.54 234.554C155.724 234.849 155.576 236.57 155.429 238.193ZM157.933 227.522C157.933 228.948 158.228 230.325 159.652 230.177C161.567 229.981 161.665 228.063 161.812 226.588C161.91 225.555 161.959 224.129 160.536 224.178C158.326 224.178 158.473 226.243 157.933 227.522ZM167.262 229.194C167.213 227.866 166.968 226.588 165.642 226.735C163.874 226.932 163.383 228.407 163.383 229.981C163.383 231.112 163.285 232.685 164.807 232.636C166.87 232.587 166.821 230.472 167.262 229.194ZM177.574 213.212C177.476 212.13 177.672 210.999 176.297 210.852C175.119 210.753 173.597 213.065 173.695 214.835C173.744 215.917 174.235 217.048 175.315 216.9C177.328 216.605 177.476 214.786 177.574 213.212ZM175.119 190.788C175.07 188.92 174.726 188.231 173.842 188.231C172.664 188.182 171.142 190.297 171.338 191.919C171.436 192.903 171.583 194.427 172.909 194.28C174.922 193.985 175.021 192.116 175.119 190.788Z" fill="url(#paint1_linear_101_3)"/>
<path d="M224.712 113.387C230.997 108.273 238.902 107.388 246.317 105.273C258.985 101.683 271.702 98.3888 284.371 94.9465C285.795 94.5531 287.268 94.1597 288.692 94.1597C290.852 94.1597 292.669 94.0122 292.62 91.2092C294.24 95.2907 294.338 99.5198 293.356 103.749C289.281 120.763 285.205 137.778 280.983 154.743C279.068 162.513 273.863 167.627 266.35 169.791C248.772 174.905 231.144 179.576 213.517 184.592C210.767 185.379 208.164 184.641 205.513 184.641C204.678 180.56 204.825 176.577 205.906 172.495C209.834 157.546 213.762 142.597 217.445 127.599C218.82 122.239 220.882 117.37 224.712 113.387ZM281.13 110.043C281.13 106.453 279.068 104.831 275.532 105.568C271.064 106.552 266.154 111.912 265.614 116.436C265.172 119.976 266.939 122.239 269.935 122.042C275.238 121.599 281.179 115.256 281.13 110.043ZM229.131 128.09C229.131 131.385 230.948 132.959 234.041 132.467C239.05 131.631 244.156 125.927 244.549 120.812C244.794 117.567 243.076 115.944 239.835 116.19C234.827 116.633 229.131 122.976 229.131 128.09ZM260.507 136.794C260.507 139.794 261.833 141.269 264.484 141.22C270.082 141.171 276.416 134.04 275.876 128.484C275.631 126.123 274.059 124.746 271.751 124.894C266.399 125.14 260.458 131.434 260.507 136.794ZM256.088 155.628C256.039 159.169 257.905 160.693 261.391 160.054C266.203 159.218 271.31 153.612 271.653 148.793C271.85 146.137 270.278 144.367 267.627 144.318C262.815 144.22 256.137 150.76 256.088 155.628ZM228.64 151.694C233.894 151.743 240.621 144.613 240.228 139.351C240.032 136.991 238.313 135.467 235.956 135.565C230.653 135.86 224.515 142.646 224.712 147.957C224.859 150.416 226.185 151.694 228.64 151.694ZM235.121 159.316C235.22 156.218 233.55 154.743 230.309 155.087C225.35 155.628 219.802 161.824 219.802 166.84C219.802 169.397 221.422 170.922 223.975 170.774C228.984 170.479 234.974 164.332 235.121 159.316ZM274.747 158.579C274.747 157.103 274.01 156.268 272.488 156.366C270.131 156.464 266.203 160.251 265.957 162.611C265.712 164.824 266.498 165.66 268.658 165.463C271.31 165.168 274.796 161.234 274.747 158.579ZM249.312 165.955C251.816 165.955 255.008 162.365 254.664 159.906C254.468 158.579 253.682 158.087 252.454 158.333C250.294 158.726 247.593 161.677 247.397 163.84C247.2 165.267 247.839 165.955 249.312 165.955ZM238.902 171.463C238.951 170.036 238.313 169.299 236.84 169.446C234.532 169.643 231.537 172.938 231.586 175.2C231.586 176.331 231.881 177.167 233.206 177.167C235.416 177.167 238.902 173.675 238.902 171.463ZM278.626 149.236C278.577 148.498 278.282 147.957 277.349 147.908C276.023 147.859 273.372 150.514 273.421 151.842C273.47 152.776 274.059 153.071 274.894 153.071C276.367 153.071 278.577 150.809 278.626 149.236ZM249.656 170.184C249.557 169.446 249.165 169.004 248.232 169.053C246.955 169.151 244.5 171.659 244.5 172.889C244.5 173.97 245.187 174.265 246.12 174.216C247.544 174.118 249.754 171.708 249.656 170.184ZM262.864 162.168C262.913 161.677 262.422 161.185 261.587 161.136C260.016 160.988 257.463 163.644 257.708 165.217C257.807 165.955 258.248 166.348 259.034 166.348C260.262 166.299 262.766 163.84 262.864 162.168ZM278.577 138.368C278.577 138.122 278.233 137.679 277.496 137.532C275.778 137.188 272.979 140.237 273.47 141.859C273.666 142.499 274.108 142.744 274.796 142.695C276.072 142.597 278.528 140.138 278.577 138.368ZM240.523 166.299C242.241 166.25 244.303 163.988 244.254 162.611C244.254 161.775 243.911 161.185 242.978 161.185C241.701 161.136 239.442 163.398 239.442 164.726C239.491 165.611 239.786 166.299 240.523 166.299Z" fill="url(#paint2_linear_101_3)"/>
<path d="M118.652 194.525C118.799 197.082 119.388 199.541 120.223 201.951C125.379 217.146 130.534 232.341 135.739 247.536C137.31 252.06 139.864 255.846 144.037 258.403C140.453 260.961 136.328 261.206 132.302 260.469C123.66 258.846 115.067 256.781 106.474 254.912C96.8503 252.797 87.1772 250.683 77.5532 248.421C69.7951 246.601 64.5412 241.782 61.9879 234.259C56.8813 219.309 51.8237 204.36 46.7171 189.46C45.7351 186.608 44.9495 183.707 45.0477 180.609C45.0968 179.625 45.195 178.986 46.3734 179.232C47.8465 180.855 49.8106 181.74 51.8728 182.232C65.8669 185.379 79.861 188.428 93.855 191.477C94.1497 191.526 94.4934 191.477 94.8371 191.477C95.4263 192.067 96.0646 192.509 96.8994 192.706C100.386 193.493 103.872 194.427 107.358 195.115C111.09 195.755 114.92 195.804 118.652 194.525ZM100.926 195.46C98.6179 196.197 97.7341 197.574 98.1269 200.033C98.8143 204.655 104.363 209.966 109.028 210.31C110.992 210.458 112.808 210.163 113.349 207.753C113.496 207.36 113.741 207.016 113.741 206.622C113.545 200.869 106.671 194.87 100.926 195.46ZM87.7173 237.307C88.3065 236.816 88.2083 236.127 88.1592 235.488C87.9137 229.784 80.9903 223.883 75.2945 224.522C72.7412 225.112 72.2011 226.932 72.5448 229.194C73.3304 233.914 78.7807 239.029 83.4945 239.471C85.3604 239.619 86.9808 239.274 87.7173 237.307ZM75.9328 199.935C76.522 199.394 76.3256 198.754 76.1783 198.115C75.049 193.148 71.8083 190.1 67.34 188.182C66.0142 187.592 64.5903 187.149 63.1172 187.887C61.2513 188.477 60.6621 189.854 60.7112 191.673C60.8094 196.689 67.34 202.983 72.3484 202.836C74.2142 202.738 75.7364 202.098 75.9328 199.935ZM125.575 245.175C126.557 241.389 124.446 238.783 122.04 236.471C119.634 234.111 117.031 231.849 113.152 232.833C110.893 233.128 110.255 234.652 110.304 236.668C110.452 241.881 117.277 248.077 122.432 247.634C124.053 247.487 125.329 246.946 125.575 245.175Z" fill="url(#paint3_linear_101_3)"/>
<path d="M224.712 113.387C220.882 117.42 218.82 122.239 217.494 127.599C213.811 142.597 209.883 157.546 205.955 172.495C204.875 176.528 204.727 180.56 205.562 184.641C201.143 184.543 197.706 182.281 194.514 179.576C190.242 175.987 187.296 171.708 185.725 166.152C183.564 158.53 180.667 151.153 178.065 143.679C177.083 140.827 175.855 138.073 173.891 135.663C173.056 134.68 172.762 133.598 172.86 132.27C173.056 128.976 172.664 125.73 170.405 123.075C170.356 122.976 170.258 122.829 170.209 122.73C170.061 122.534 169.914 122.337 169.767 122.14C168.441 120.468 166.87 119.042 164.562 119.682C162.156 120.37 161.567 122.485 161.321 124.697C161.272 124.943 161.272 125.189 161.272 125.435C160.879 126.074 160.339 126.173 159.603 125.976C156.804 125.287 154.054 124.599 151.255 124.107C149.733 123.812 149.684 123.124 150.028 121.894C154.496 104.732 158.866 87.5212 163.383 70.3592C164.169 67.4087 165.544 64.7041 167.852 62.5896C168.244 65.245 169.865 67.2612 171.633 69.0315C180.274 77.6371 188.867 86.2427 197.706 94.6024C201.094 97.7988 204.58 100.897 207.722 104.339C212.24 109.502 217.788 112.65 224.712 113.387ZM183.908 131.041C184.055 131.287 184.252 131.533 184.399 131.828C188.082 133.254 190.34 132.418 191.126 128.926C192.059 124.55 191.519 120.37 188.524 116.78C185.627 113.289 182.68 112.945 180.864 115.993C178.409 120.075 180.078 128.189 183.908 131.09V131.041ZM203.058 124.648C203.205 124.796 203.352 124.943 203.5 125.091C207.231 126.615 209.637 125.681 210.325 122.042C211.16 117.665 210.669 113.436 207.526 109.896C206.249 108.273 204.776 106.994 202.567 107.339C200.701 107.634 199.768 109.109 199.375 110.732C198.098 116.043 199.13 120.763 203.107 124.697L203.058 124.648ZM193.237 163.3C197.46 164.726 199.522 164.086 200.357 160.693C201.339 156.612 200.946 152.579 198.246 149.088C196.92 147.121 195.447 145.351 192.795 145.646C190.733 145.892 189.8 147.613 189.407 149.383C188.376 154.596 189.407 159.316 193.237 163.3ZM179.685 83.2922C178.409 81.5711 176.837 80.1942 174.579 80.6859C172.467 81.1285 171.583 82.948 171.338 84.8658C170.65 89.6849 171.534 94.1107 175.07 97.7004C177.918 100.307 181.158 99.6674 182.288 96.0776C183.761 91.406 182.73 87.1278 179.685 83.2922Z" fill="url(#paint4_radial_101_3)"/>
<path d="M168.932 138.86C168.146 142.646 166.231 145.744 162.941 147.859C159.603 146.58 159.21 145.302 161.321 142.499C161.616 142.105 161.91 141.761 162.205 141.318C163.727 139.155 163.58 138.516 161.174 137.63C157.638 136.303 157.295 134.532 160.044 132.123C164.758 132.221 167.999 134.631 168.932 138.86Z" fill="white"/>
<path d="M145.609 129.565C138.096 128.434 130.78 126.517 123.365 125.041C118.406 124.058 113.496 122.878 108.537 121.845C103.626 120.812 98.8143 120.911 94.1496 122.927C93.6586 123.124 93.0694 123.124 92.4802 123.173C97.3413 119.829 102.742 119.14 108.389 120.37C120.174 122.927 131.958 125.533 143.743 128.09C144.626 128.287 145.658 128.238 145.609 129.565Z" fill="white"/>
<path d="M170.11 122.779C170.159 122.878 170.258 123.025 170.307 123.124C168.343 123.517 166.87 124.55 165.544 126.123C163.874 128.14 162.303 127.844 161.174 125.484C161.174 125.238 161.223 124.992 161.223 124.746C161.468 122.534 162.058 120.419 164.464 119.731C166.771 119.042 168.343 120.468 169.668 122.189C169.816 122.386 169.963 122.583 170.11 122.779Z" fill="#6B4AA4"/>
<path d="M246.906 58.3606C246.808 59.3441 246.268 60.0326 245.531 60.5735C240.915 64.1632 230.457 61.2619 228.198 55.7544C230.162 53.9349 232.47 53.394 235.121 53.2956C239.983 53.0989 243.616 55.2134 246.906 58.3606Z" fill="#FEFBFE"/>
<path d="M240.474 78.4728C239.295 81.0299 236.938 81.2758 234.581 81.5216C229.082 82.0134 223.828 79.5055 221.815 75.424C226.627 70.8507 237.233 72.8669 240.474 78.4728Z" fill="#FEFBFE"/>
<path d="M235.956 97.0611C234.287 100.012 231.439 100.257 228.542 100.061C223.975 99.7657 219.703 98.6839 217.347 94.1106C221.962 89.8324 232.126 91.2093 235.956 97.0611Z" fill="#FEFBFE"/>
<path d="M235.956 97.0608C232.126 91.209 221.913 89.8321 217.347 94.1103C217.15 91.2582 217.887 89.9305 220.538 89.1437C225.694 87.6193 230.309 88.8486 234.483 92.1433C236.153 93.4711 236.153 95.2414 235.956 97.0608Z" fill="#6B4AA4"/>
<path d="M240.474 78.4729C237.233 72.867 226.627 70.8016 221.815 75.424C221.324 72.9653 222.6 71.5884 224.712 70.7033C229.033 68.8838 236.349 70.5557 239.442 74.0963C240.474 75.3257 241.456 76.7026 240.474 78.4729Z" fill="#6B4AA4"/>
<path d="M246.906 58.3605C243.616 55.2133 239.933 53.0988 235.171 53.2955C232.519 53.3939 230.162 53.9348 228.247 55.7543C227.756 53.4922 228.935 52.2137 230.8 51.3777C235.023 49.4599 242.732 51.1318 245.678 54.6232C246.562 55.6559 247.446 56.8361 246.906 58.3605Z" fill="#6B4AA4"/>
<path d="M118.651 194.526C114.92 195.804 111.09 195.706 107.309 194.968C103.823 194.28 100.336 193.345 96.8502 192.559C96.0155 192.362 95.3772 191.919 94.7879 191.329C94.346 187.985 95.4754 186.904 98.7161 187.543C102.939 188.428 107.063 189.756 111.434 190.1C115.411 190.395 118.406 188.821 121.107 186.264C122.285 185.133 123.414 183.953 124.544 182.773C125.526 181.74 126.459 180.658 128.128 181.347C129.699 182.035 129.798 183.412 129.699 184.887V184.937C129.552 185.133 129.454 185.281 129.307 185.478C126.361 189.264 122.727 192.116 118.651 194.526Z" fill="white"/>
<path d="M120.026 168.856C120.812 171.167 120.075 173.085 118.406 174.61C114.92 177.855 110.795 179.183 106.032 178.249C105.148 178.052 104.314 177.757 103.774 176.921C104.461 176.724 104.805 176.183 105.05 175.544C105.885 173.282 107.554 171.905 109.568 170.626C112.907 168.561 116.491 168.955 120.026 168.856Z" fill="#FEFBFE"/>
<path d="M83.3962 160.988C84.0346 162.365 83.74 163.693 83.0034 164.971C80.2537 169.79 71.6118 171.905 67.2417 168.856C68.0273 168.856 68.371 168.512 68.5675 167.725C69.2549 165.168 71.0717 163.693 73.3303 162.513C76.522 160.939 79.8609 160.201 83.3962 160.988Z" fill="#FEFBFE"/>
<path d="M133.382 154.596C134.07 155.727 133.628 156.809 133.137 157.89C130.976 162.66 122.138 165.267 117.571 162.513C119.241 161.775 118.553 159.759 119.732 158.579C123.611 154.743 128.079 153.268 133.382 154.596Z" fill="#FEFBFE"/>
<path d="M96.4574 146.727C96.752 148.153 96.5065 149.432 95.6718 150.661C92.873 154.694 85.8514 156.71 81.2849 154.743C81.334 152.137 82.6598 150.317 84.673 148.793C88.1101 146.186 92.1365 146.186 96.1137 146.236H96.0646C96.2119 146.383 96.3101 146.58 96.4574 146.727Z" fill="#FEFBFE"/>
<path d="M146.492 139.843C147.032 141.958 146.149 143.58 144.676 145.056C141.238 148.645 133.726 149.973 130.78 147.809C134.315 140.876 138.832 138.614 146.492 139.843Z" fill="#FEFBFE"/>
<path d="M109.666 131.926C110.059 133.5 109.568 134.827 108.635 136.057C105.787 139.892 99.0598 141.761 94.5425 139.942C94.4934 137.335 95.8191 135.565 97.9305 134.139C101.417 131.779 105.296 131.287 109.322 131.484H109.273C109.42 131.631 109.519 131.779 109.666 131.926Z" fill="#FEFBFE"/>
<path d="M133.382 154.595C128.079 153.268 123.611 154.743 119.781 158.579C118.602 159.759 119.339 161.726 117.62 162.513C115.558 160.89 115.165 159.267 116.344 157.054C118.651 152.776 126.852 150.071 131.271 152.186C132.302 152.678 133.333 153.268 133.382 154.595Z" fill="#6B4AA4"/>
<path d="M120.026 168.856C116.442 168.955 112.907 168.561 109.568 170.627C107.554 171.856 105.836 173.282 105.05 175.544C104.805 176.183 104.461 176.724 103.774 176.921L103.823 176.823C103.675 176.675 103.479 176.478 103.332 176.331C103.135 176.183 102.988 175.987 102.792 175.839C101.81 173.774 102.399 171.905 103.872 170.43C107.456 166.84 111.777 165.316 116.835 166.447C118.308 166.742 119.486 167.43 120.026 168.856Z" fill="#6B4AA4"/>
<path d="M96.1137 146.236C92.0873 146.187 88.11 146.187 84.6729 148.793C82.6597 150.317 81.334 152.137 81.2849 154.743C78.7807 153.317 78.1914 151.497 79.419 149.137C81.6777 144.81 89.9759 142.203 94.346 144.416C95.1807 144.761 95.9664 145.203 96.1137 146.236Z" fill="#6B4AA4"/>
<path d="M83.3963 160.988C79.8118 160.152 76.522 160.939 73.3304 162.562C71.0717 163.693 69.2549 165.217 68.5675 167.774C68.3711 168.512 67.9783 168.905 67.2417 168.905C65.5723 166.938 65.4741 165.021 66.9471 163.004C69.6968 159.316 76.1783 157.251 80.5484 158.628C81.8741 159.021 83.0035 159.562 83.3963 160.988Z" fill="#6B4AA4"/>
<path d="M146.492 139.843C138.832 138.564 134.315 140.876 130.78 147.859C128.619 146.187 128.275 144.269 129.798 141.958C132.351 138.073 139.864 135.712 144.135 137.532C145.216 138.024 146.149 138.663 146.492 139.843Z" fill="#6B4AA4"/>
<path d="M109.371 131.483C105.296 131.287 101.466 131.778 97.9796 134.139C95.8682 135.565 94.5425 137.335 94.5916 139.942C92.2347 138.663 91.5472 137.188 92.382 135.024C94.1987 130.254 103.97 127.156 108.144 130.008C108.684 130.402 109.175 130.795 109.371 131.483Z" fill="#6B4AA4"/>
<path d="M102.841 175.839C103.037 175.986 103.184 176.183 103.381 176.331C103.184 176.134 103.037 175.986 102.841 175.839Z" fill="#DD8C14"/>
<path d="M103.332 176.331C103.479 176.478 103.675 176.675 103.823 176.823C103.675 176.675 103.528 176.478 103.332 176.331Z" fill="#DD8C14"/>
<path d="M96.4574 146.728C96.3101 146.58 96.2119 146.433 96.0646 146.236C96.4083 146.236 96.4083 146.482 96.4574 146.728Z" fill="#C87814"/>
<path d="M109.666 131.926C109.568 131.778 109.42 131.631 109.322 131.483C109.42 131.631 109.519 131.778 109.666 131.926Z" fill="#C87814"/>
<path d="M151.55 200.968C151.795 197.231 152.777 193.739 155.625 191.035C157.835 188.92 159.946 189.068 161.959 191.379C163.58 193.247 164.022 195.411 163.727 197.771C163.334 201.115 161.812 204.017 159.504 206.377C156.509 209.426 153.121 208.492 151.992 204.312C151.697 203.23 151.501 202.148 151.55 200.968Z" fill="#FEFBFE"/>
<path d="M179.489 207.016C179.538 204.901 180.029 202.836 181.748 201.361C183.417 199.935 184.988 200.328 185.774 202.393C186.56 204.41 186.167 206.426 185.332 208.294C184.694 209.819 183.859 211.442 181.846 211.097C179.734 210.704 179.587 208.835 179.489 207.016Z" fill="#6B4AA4"/>
<path d="M170.651 213.753C170.601 215.916 169.177 218.08 167.754 217.982C166.28 217.883 165.937 216.752 165.888 215.523C165.789 213.458 167.704 210.704 169.03 210.802C169.914 210.901 170.7 212.228 170.651 213.753Z" fill="#6B4AA4"/>
<path d="M183.81 192.214C183.859 194.476 182.484 196.836 181.158 196.886C179.538 196.886 179.194 195.656 179.096 194.378C178.949 192.263 180.618 189.657 181.944 189.854C183.319 190.001 183.564 191.23 183.81 192.214Z" fill="#6B4AA4"/>
<path d="M173.155 221.67C173.106 224.129 171.829 226.096 170.405 225.899C168.588 225.653 168.785 224.129 168.736 222.85C168.736 220.834 170.258 218.473 171.436 218.769C173.106 219.113 173.057 220.588 173.155 221.67Z" fill="#6B4AA4"/>
<path d="M175.61 203.18C175.61 205.491 174.137 207.852 172.86 207.557C171.338 207.262 171.24 205.885 171.24 204.655C171.24 202.443 172.762 200.279 174.186 200.476C176.003 200.672 175.463 202.197 175.61 203.18Z" fill="#6B4AA4"/>
<path d="M155.429 238.193C155.527 236.57 155.724 234.8 157.589 234.505C159.013 234.259 159.504 235.636 159.357 236.865C159.161 238.439 158.964 240.357 156.902 240.504C155.38 240.652 155.527 239.225 155.429 238.193Z" fill="#6B4AA4"/>
<path d="M157.933 227.522C158.473 226.244 158.326 224.178 160.536 224.129C162.009 224.08 161.959 225.506 161.812 226.539C161.616 228.063 161.567 229.932 159.652 230.128C158.228 230.325 157.933 228.948 157.933 227.522Z" fill="#6B4AA4"/>
<path d="M167.263 229.194C166.821 230.521 166.87 232.587 164.758 232.685C163.285 232.734 163.334 231.161 163.334 230.03C163.334 228.456 163.825 226.932 165.593 226.784C166.968 226.587 167.164 227.866 167.263 229.194Z" fill="#6B4AA4"/>
<path d="M177.574 213.212C177.476 214.786 177.328 216.556 175.315 216.851C174.235 216.998 173.744 215.867 173.695 214.786C173.646 213.015 175.119 210.704 176.297 210.802C177.672 210.999 177.476 212.179 177.574 213.212Z" fill="#6B4AA4"/>
<path d="M175.119 190.788C175.021 192.116 174.922 193.984 172.909 194.23C171.583 194.427 171.485 192.853 171.338 191.87C171.142 190.247 172.713 188.133 173.842 188.182C174.726 188.28 175.07 188.919 175.119 190.788Z" fill="#6B4AA4"/>
<path d="M129.307 185.527C129.454 185.33 129.552 185.182 129.699 184.986C129.798 185.33 129.65 185.477 129.307 185.527Z" fill="#FED17A"/>
<path d="M281.13 110.043C281.13 115.305 275.238 121.599 269.935 122.042C266.939 122.288 265.172 120.026 265.614 116.436C266.154 111.912 271.064 106.552 275.532 105.568C279.068 104.782 281.13 106.454 281.13 110.043Z" fill="#FEFBFE"/>
<path d="M229.131 128.091C229.131 122.976 234.827 116.633 239.835 116.239C243.076 115.944 244.795 117.616 244.549 120.862C244.205 125.976 239.05 131.68 234.041 132.516C230.948 132.959 229.18 131.385 229.131 128.091Z" fill="#FEFBFE"/>
<path d="M260.507 136.794C260.458 131.483 266.399 125.14 271.702 124.894C274.01 124.796 275.581 126.123 275.827 128.484C276.367 134.041 270.033 141.171 264.435 141.22C261.833 141.22 260.507 139.745 260.507 136.794Z" fill="#FEFBFE"/>
<path d="M256.088 155.628C256.137 150.76 262.815 144.22 267.676 144.318C270.328 144.367 271.899 146.088 271.702 148.793C271.359 153.661 266.252 159.267 261.44 160.054C257.905 160.644 256.088 159.12 256.088 155.628Z" fill="#FEFBFE"/>
<path d="M228.64 151.694C226.185 151.694 224.81 150.416 224.712 148.006C224.466 142.646 230.604 135.86 235.956 135.614C238.264 135.516 240.032 137.04 240.228 139.4C240.621 144.613 233.943 151.743 228.64 151.694Z" fill="#FEFBFE"/>
<path d="M235.121 159.316C234.974 164.283 228.984 170.43 223.975 170.774C221.422 170.922 219.802 169.397 219.802 166.84C219.802 161.873 225.35 155.677 230.309 155.087C233.55 154.743 235.22 156.218 235.121 159.316Z" fill="#FEFBFE"/>
<path d="M274.747 158.579C274.796 161.234 271.26 165.168 268.658 165.414C266.448 165.611 265.663 164.824 265.957 162.562C266.252 160.202 270.18 156.415 272.488 156.317C274.01 156.317 274.747 157.104 274.747 158.579Z" fill="#7138C9"/>
<path d="M249.312 165.955C247.839 166.004 247.2 165.266 247.348 163.84C247.593 161.677 250.245 158.726 252.405 158.333C253.682 158.087 254.418 158.579 254.615 159.906C254.959 162.316 251.816 165.906 249.312 165.955Z" fill="#7138C9"/>
<path d="M238.902 171.462C238.902 173.675 235.416 177.167 233.206 177.167C231.881 177.167 231.586 176.331 231.586 175.2C231.586 172.889 234.581 169.643 236.84 169.446C238.313 169.299 239 170.036 238.902 171.462Z" fill="#7138C9"/>
<path d="M278.626 149.235C278.577 150.809 276.318 153.12 274.894 153.12C274.059 153.12 273.47 152.825 273.421 151.891C273.372 150.563 276.023 147.908 277.349 147.957C278.282 147.908 278.626 148.498 278.626 149.235Z" fill="#7138C9"/>
<path d="M249.656 170.184C249.754 171.708 247.544 174.118 246.12 174.216C245.187 174.265 244.5 173.97 244.5 172.888C244.5 171.659 246.955 169.151 248.232 169.053C249.165 169.004 249.557 169.446 249.656 170.184Z" fill="#7138C9"/>
<path d="M262.864 162.169C262.766 163.841 260.262 166.299 258.985 166.348C258.199 166.348 257.757 165.955 257.659 165.217C257.414 163.693 259.967 160.988 261.538 161.136C262.471 161.185 262.913 161.628 262.864 162.169Z" fill="#7138C9"/>
<path d="M278.577 138.368C278.528 140.138 276.072 142.597 274.796 142.695C274.157 142.745 273.666 142.499 273.47 141.859C272.93 140.187 275.729 137.139 277.496 137.532C278.233 137.68 278.577 138.122 278.577 138.368Z" fill="#7138C9"/>
<path d="M240.523 166.299C239.786 166.299 239.491 165.61 239.491 164.725C239.491 163.397 241.701 161.135 243.027 161.185C243.96 161.234 244.303 161.775 244.303 162.611C244.303 164.037 242.241 166.25 240.523 166.299Z" fill="#7138C9"/>
<path d="M113.201 232.833C117.031 231.849 119.683 234.111 122.089 236.472C124.446 238.783 126.606 241.389 125.624 245.176C118.848 245.077 113.152 239.422 113.201 232.833Z" fill="#FEFBFE"/>
<path d="M63.1172 187.887C64.5902 187.149 66.0142 187.641 67.34 188.182C71.8082 190.1 75.049 193.149 76.1783 198.115C76.3256 198.755 76.522 199.394 75.9328 199.935C69.2058 199.984 63.6573 194.771 63.1172 187.887Z" fill="#FEFBFE"/>
<path d="M75.3436 224.522C80.9903 223.883 87.9137 229.784 88.2083 235.488C88.2574 236.128 88.3065 236.816 87.7664 237.308C87.3245 237.16 86.8825 236.914 86.3915 236.816C80.3029 236.029 75.4418 230.669 75.3436 224.522Z" fill="#FEFBFE"/>
<path d="M100.926 195.46C106.72 194.87 113.594 200.869 113.692 206.672C113.692 207.065 113.447 207.409 113.299 207.803C106.572 207.704 100.926 202.098 100.926 195.46Z" fill="#FEFBFE"/>
<path d="M75.3436 224.522C75.4418 230.669 80.2538 236.029 86.3915 236.816C86.8335 236.865 87.2754 237.111 87.7664 237.307C87.0299 239.274 85.3604 239.619 83.5927 239.471C78.8789 239.029 73.4286 233.914 72.643 229.194C72.2502 226.981 72.7903 225.112 75.3436 224.522Z" fill="#6B4AA4"/>
<path d="M100.926 195.46C100.975 202.098 106.572 207.704 113.299 207.753C112.759 210.163 110.942 210.458 108.978 210.311C104.314 209.966 98.7652 204.655 98.0778 200.033C97.734 197.623 98.5688 196.247 100.926 195.46Z" fill="#6B4AA4"/>
<path d="M63.1172 187.887C63.6573 194.82 69.2058 200.033 75.9328 199.935C75.6873 202.098 74.2142 202.738 72.3483 202.787C67.3399 202.934 60.8094 196.64 60.7112 191.624C60.6621 189.854 61.2513 188.428 63.1172 187.887Z" fill="#6B4AA4"/>
<path d="M113.201 232.833C113.152 239.422 118.848 245.077 125.575 245.176C125.329 246.995 124.053 247.536 122.432 247.635C117.277 248.077 110.402 241.881 110.304 236.669C110.304 234.652 110.943 233.128 113.201 232.833Z" fill="#6B4AA4"/>
<path d="M179.685 83.292C182.779 87.0785 183.81 91.3567 182.337 96.0774C181.207 99.6672 177.967 100.306 175.119 97.7002C174.677 95.8807 174.186 94.0613 173.842 92.2418C172.762 86.9309 175.07 83.4395 179.685 83.292Z" fill="#FEFBFE"/>
<path d="M207.477 109.846C210.619 113.387 211.16 117.616 210.276 121.992C209.588 125.631 207.231 126.566 203.451 125.041C203.303 124.894 203.156 124.746 203.009 124.599V124.648C202.272 121.648 201.241 118.747 201.536 115.55C201.83 112.207 203.058 110.731 206.348 110.289C206.79 110.289 207.133 110.043 207.477 109.846Z" fill="#FEFBFE"/>
<path d="M188.524 116.731C191.568 120.321 192.059 124.501 191.126 128.877C190.39 132.369 188.082 133.205 184.399 131.778C184.252 131.533 184.055 131.287 183.908 130.992V131.041C183.368 128.287 182.14 125.632 182.435 122.681C182.828 118.649 184.497 116.878 188.524 116.731Z" fill="#FEFBFE"/>
<path d="M198.295 149.039C200.996 152.53 201.388 156.563 200.406 160.644C199.572 164.086 197.509 164.726 193.286 163.25C192.894 160.447 191.617 157.841 191.764 154.841C192.01 150.268 193.778 148.547 198.295 149.039Z" fill="#FEFBFE"/>
<path d="M198.295 149.039C193.778 148.547 192.01 150.268 191.764 154.891C191.568 157.841 192.894 160.448 193.287 163.3C189.408 159.366 188.376 154.596 189.506 149.334C189.899 147.515 190.831 145.843 192.894 145.597C195.496 145.252 196.969 147.072 198.295 149.039Z" fill="#6B4AA4"/>
<path d="M207.477 109.846C207.133 109.994 206.741 110.24 206.397 110.289C203.107 110.731 201.879 112.207 201.585 115.551C201.29 118.747 202.37 121.648 203.058 124.648C199.081 120.714 198.049 115.944 199.326 110.682C199.719 109.059 200.603 107.584 202.518 107.289C204.776 106.994 206.249 108.273 207.477 109.846Z" fill="#6B4AA4"/>
<path d="M188.524 116.731C184.497 116.878 182.828 118.649 182.435 122.73C182.189 125.681 183.368 128.287 183.908 131.09C180.029 128.14 178.409 120.026 180.864 115.993C182.68 112.945 185.676 113.24 188.524 116.731Z" fill="#6B4AA4"/>
<path d="M179.685 83.292C175.07 83.4395 172.762 86.9309 173.793 92.2418C174.137 94.0613 174.628 95.8808 175.07 97.7002C171.485 94.1105 170.601 89.6847 171.338 84.8656C171.633 82.9478 172.467 81.1283 174.579 80.6857C176.837 80.2432 178.409 81.5709 179.685 83.292Z" fill="#6B4AA4"/>
<path d="M170.11 122.78C169.963 122.583 169.816 122.386 169.668 122.189C169.816 122.386 169.963 122.583 170.11 122.78Z" fill="#C87814"/>
<path d="M203.058 124.648C203.205 124.796 203.352 124.943 203.5 125.091C203.352 124.943 203.205 124.796 203.058 124.648Z" fill="#8E3F14"/>
<path d="M183.908 131.041C184.055 131.287 184.252 131.533 184.399 131.828C184.252 131.533 184.104 131.287 183.908 131.041Z" fill="#8E3F14"/>
<path d="M203.778 185.5C205.855 176.845 209.092 162.481 211.892 150.391C215.206 136.086 216.094 117.899 228.778 110.5V110.5C234.778 107 278.778 96.5 282.278 95.5C285.778 94.5 292.278 94 293.278 91.5C294.078 89.5 293.611 88.3333 293.278 87.5" stroke="#F7F6FA" stroke-width="3" stroke-linecap="round"/>
<path d="M225.278 112.5C222.611 113.167 215.378 111.7 207.778 104.5C198.278 95.5 174.278 70.5 172.278 69C170.278 67.5 167.278 63.5 167.778 61.5" stroke="#F6F6FA" stroke-width="3" stroke-linecap="round"/>
</g>
<path d="M149 259C145.833 260.167 138.5 259.8 134.5 249C129.5 235.5 115.5 197.5 117 194.5" stroke="white" stroke-width="3" stroke-linecap="round"/>
<g filter="url(#filter1_f_101_3)">
<circle cx="86" cy="75" r="7" fill="#8D43F1" fill-opacity="0.2"/>
</g>
<circle cx="127.5" cy="77.5" r="3.5" fill="#8D43F1" fill-opacity="0.1"/>
<g filter="url(#filter2_f_101_3)">
<circle cx="7.5" cy="238.5" r="3.5" fill="#8D43F1" fill-opacity="0.1"/>
</g>
<circle cx="37.5" cy="215.5" r="3.5" fill="#8D43F1" fill-opacity="0.1"/>
<circle cx="232" cy="246" r="7" fill="#8D43F1" fill-opacity="0.1"/>
<circle cx="238.5" cy="227.5" r="3.5" fill="#8D43F1" fill-opacity="0.1"/>
<g filter="url(#filter3_f_101_3)">
<circle cx="209.5" cy="248.5" r="1.5" fill="#8D43F1" fill-opacity="0.5"/>
</g>
<circle cx="253.5" cy="190.5" r="1.5" fill="#8D43F1" fill-opacity="0.5"/>
<circle cx="313.5" cy="77.5" r="1.5" fill="#8D43F1" fill-opacity="0.1"/>
<circle cx="11.5" cy="135.5" r="1.5" fill="#8D43F1" fill-opacity="0.5"/>
<circle cx="99.5" cy="49.5" r="1.5" fill="#8D43F1" fill-opacity="0.5"/>
<circle cx="22.5" cy="219.5" r="1.5" fill="#8D43F1" fill-opacity="0.5"/>
<circle cx="37.5" cy="245.5" r="1.5" fill="#8D43F1" fill-opacity="0.5"/>
<circle cx="315.5" cy="64.5" r="1.5" fill="#8D43F1" fill-opacity="0.2"/>
<circle cx="83.5" cy="91.5" r="1.5" fill="#8D43F1" fill-opacity="0.5"/>
<circle cx="228.5" cy="241.5" r="1.5" fill="#8D43F1" fill-opacity="0.5"/>
<defs>
<filter id="filter0_d_101_3" x="15" y="0" width="338.556" height="310" filterUnits="userSpaceOnUse" color-interpolation-filters="sRGB">
<feFlood flood-opacity="0" result="BackgroundImageFix"/>
<feColorMatrix in="SourceAlpha" type="matrix" values="0 0 0 0 0 0 0 0 0 0 0 0 0 0 0 0 0 0 127 0" result="hardAlpha"/>
<feOffset dx="14" dy="4"/>
<feGaussianBlur stdDeviation="20"/>
<feComposite in2="hardAlpha" operator="out"/>
<feColorMatrix type="matrix" values="0 0 0 0 0 0 0 0 0 0 0 0 0 0 0 0 0 0 0.55 0"/>
<feBlend mode="normal" in2="BackgroundImageFix" result="effect1_dropShadow_101_3"/>
<feBlend mode="normal" in="SourceGraphic" in2="effect1_dropShadow_101_3" result="shape"/>
</filter>
<filter id="filter1_f_101_3" x="75" y="64" width="22" height="22" filterUnits="userSpaceOnUse" color-interpolation-filters="sRGB">
<feFlood flood-opacity="0" result="BackgroundImageFix"/>
<feBlend mode="normal" in="SourceGraphic" in2="BackgroundImageFix" result="shape"/>
<feGaussianBlur stdDeviation="2" result="effect1_foregroundBlur_101_3"/>
</filter>
<filter id="filter2_f_101_3" x="0" y="231" width="15" height="15" filterUnits="userSpaceOnUse" color-interpolation-filters="sRGB">
<feFlood flood-opacity="0" result="BackgroundImageFix"/>
<feBlend mode="normal" in="SourceGraphic" in2="BackgroundImageFix" result="shape"/>
<feGaussianBlur stdDeviation="2" result="effect1_foregroundBlur_101_3"/>
</filter>
<filter id="filter3_f_101_3" x="204" y="243" width="11" height="11" filterUnits="userSpaceOnUse" color-interpolation-filters="sRGB">
<feFlood flood-opacity="0" result="BackgroundImageFix"/>
<feBlend mode="normal" in="SourceGraphic" in2="BackgroundImageFix" result="shape"/>
<feGaussianBlur stdDeviation="2" result="effect1_foregroundBlur_101_3"/>
</filter>
<linearGradient id="paint0_linear_101_3" x1="230.163" y1="41.3" x2="230.163" y2="113.387" gradientUnits="userSpaceOnUse">
<stop offset="0.190048" stop-color="#F7F1FE"/>
<stop offset="0.522979" stop-color="#EDCEFE"/>
<stop offset="1" stop-color="#E8BEFF"/>
</linearGradient>
<linearGradient id="paint1_linear_101_3" x1="154.828" y1="138.909" x2="154.828" y2="258.551" gradientUnits="userSpaceOnUse">
<stop offset="0.10106" stop-color="#6B4AA3"/>
<stop offset="1" stop-color="#7138C9"/>
</linearGradient>
<linearGradient id="paint2_linear_101_3" x1="226.778" y1="119" x2="249.483" y2="184.955" gradientUnits="userSpaceOnUse">
<stop stop-color="#6B4AA4"/>
<stop offset="1" stop-color="#791FF6"/>
</linearGradient>
<linearGradient id="paint3_linear_101_3" x1="122.778" y1="193" x2="76.7781" y2="261" gradientUnits="userSpaceOnUse">
<stop offset="0.302671" stop-color="#7422FC"/>
<stop offset="1" stop-color="#C278DF"/>
</linearGradient>
<radialGradient id="paint4_radial_101_3" cx="0" cy="0" r="1" gradientUnits="userSpaceOnUse" gradientTransform="translate(179.778 83.5) rotate(80.5908) scale(88.6933 54.3985)">
<stop offset="0.194559" stop-color="#D7A4FE"/>
<stop offset="0.801923" stop-color="#8235EF"/>
<stop offset="0.893269" stop-color="#8235EF"/>
</radialGradient>
</defs>
</svg>
