<svg width="354" height="310" viewBox="0 0 354 310" fill="none" xmlns="http://www.w3.org/2000/svg">
<circle cx="168" cy="158" r="129" fill="#FED17A" fill-opacity="0.11"/>
<g filter="url(#filter0_d_106_107)">
<path d="M277.202 170.233C271.408 174.708 264.288 175.937 257.512 177.855C244.009 181.691 230.555 185.625 217.003 189.313C208.115 191.723 200.014 189.903 192.894 184.051C192.599 183.805 192.305 183.609 191.519 182.969C192.697 186.362 193.679 189.165 194.661 192.018C198.148 202.393 196.233 211.638 188.966 219.801C178.261 231.849 167.606 243.897 157 256.043C149.635 264.452 140.6 267.599 129.699 265.239C112.317 261.403 94.9844 257.518 77.6514 253.486C68.2729 251.322 61.7423 245.569 58.5998 236.521C53.0513 220.637 47.6009 204.754 42.3961 188.723C39.3027 179.183 41.4141 170.381 48.092 162.906C60.0238 149.58 72.0537 136.253 84.231 123.124C90.8598 115.895 99.3053 113.092 108.929 115.01C120.37 117.272 131.762 119.927 143.153 122.484C144.97 122.878 145.707 122.73 146.198 120.714C150.519 103.503 154.84 86.3409 159.455 69.2281C162.009 59.6881 168.539 53.7872 177.869 50.8859C179.931 50.2466 182.189 50.0499 184.104 48.968C191.077 47.542 197.853 45.3291 204.727 43.5588C213.664 41.2476 222.502 38.4938 231.537 36.576C239.786 34.8057 247.348 37.1661 253.535 42.9687C264.19 53.0495 274.599 63.3271 285.107 73.5063C288.053 76.3584 291.245 78.9647 293.749 82.2102C299.052 89.0455 300.771 96.7168 298.708 105.126C294.731 121.648 290.558 138.171 286.629 154.743C285.009 160.89 281.916 166.004 277.202 170.233ZM170.307 123.124C172.566 125.779 172.958 129.025 172.762 132.319C172.664 133.647 172.958 134.68 173.793 135.712C175.757 138.073 176.985 140.827 177.967 143.728C180.569 151.202 183.417 158.628 185.627 166.201C187.198 171.708 190.144 176.036 194.416 179.626C197.657 182.33 201.045 184.592 205.464 184.691C208.115 184.74 210.718 185.428 213.467 184.641C231.046 179.675 248.723 174.954 266.301 169.84C273.814 167.676 279.019 162.562 280.934 154.792C285.156 137.827 289.232 120.812 293.307 103.798C294.338 99.5689 294.24 95.3891 292.571 91.2584C291.736 88.062 289.87 85.5049 287.562 83.2429C275.434 71.5393 263.208 59.934 251.129 48.1812C244.598 41.8377 236.938 39.969 228.345 42.2803C212.24 46.5585 196.184 50.935 180.127 55.3608C175.364 56.6885 170.847 58.6063 167.655 62.6878C165.348 64.8023 163.973 67.5069 163.187 70.4574C158.719 87.6194 154.3 104.831 149.831 121.993C149.488 123.271 149.537 123.96 151.059 124.205C153.858 124.697 156.656 125.435 159.406 126.074C160.143 126.271 160.683 126.123 161.076 125.533C162.205 127.894 163.776 128.238 165.446 126.172C166.87 124.55 168.343 123.517 170.307 123.124ZM168.932 138.86C167.95 134.68 164.758 132.27 159.995 132.123C158.277 131.336 156.264 131.336 154.594 130.598C151.648 129.271 148.407 131.139 145.559 129.566C145.609 128.238 144.577 128.287 143.743 128.09C131.958 125.484 120.174 122.878 108.389 120.37C102.742 119.14 97.3413 119.878 92.4802 123.173C90.6634 123.714 89.4849 125.091 88.2574 126.369C77.1112 138.663 66.0142 151.006 54.7698 163.25C50.5471 167.873 46.8153 172.594 46.3243 179.134C45.1458 178.888 45.0476 179.576 44.9985 180.511C44.9003 183.609 45.686 186.51 46.668 189.362C51.7746 204.311 56.8321 219.26 61.9387 234.16C64.5411 241.733 69.7459 246.503 77.5041 248.323C87.128 250.585 96.752 252.65 106.425 254.814C115.018 256.732 123.611 258.748 132.253 260.371C136.279 261.108 140.404 260.862 143.988 258.305C146.541 258.158 148.456 256.732 150.126 255.01C153.661 251.372 157.049 247.634 160.437 243.848C168.637 234.652 176.739 225.309 184.988 216.162C190.881 209.622 192.55 202.049 189.653 194.034C184.448 179.724 179.833 165.217 174.873 150.809C173.695 147.416 172.762 143.925 170.896 140.777C170.454 140.138 170.356 138.81 168.932 138.86Z" fill="#E9DCFF"/>
<path d="M167.704 62.6386C170.896 58.5571 175.364 56.6393 180.176 55.3116C196.233 50.8858 212.289 46.5093 228.394 42.2311C237.036 39.969 244.647 41.7885 251.178 48.1321C263.257 59.8848 275.483 71.4901 287.611 83.1937C289.919 85.4557 291.785 88.0128 292.62 91.2092C292.669 94.0122 290.852 94.1597 288.692 94.1597C287.268 94.1597 285.795 94.5531 284.371 94.9465C271.653 98.3395 258.936 101.683 246.317 105.273C238.902 107.339 230.997 108.273 224.712 113.387C217.788 112.649 212.24 109.551 207.575 104.388C204.433 100.946 200.946 97.8478 197.558 94.6514C188.72 86.2917 180.078 77.6861 171.485 69.0805C169.718 67.3102 168.097 65.2941 167.704 62.6386ZM217.396 94.1105C219.753 98.6838 224.024 99.7656 228.591 100.061C231.439 100.257 234.336 100.011 236.005 97.061C236.153 95.2415 236.153 93.4712 234.532 92.1435C230.359 88.8488 225.743 87.6194 220.587 89.1439C217.936 89.9306 217.199 91.2584 217.396 94.1105ZM221.815 75.4241C223.828 79.5548 229.082 82.0627 234.581 81.5218C236.938 81.3251 239.295 81.03 240.474 78.4729C241.456 76.7026 240.474 75.3257 239.393 74.0964C236.3 70.5558 228.984 68.8838 224.663 70.7033C222.6 71.5884 221.324 72.9653 221.815 75.4241ZM228.247 55.7542C230.506 61.2617 240.965 64.2122 245.58 60.5733C246.317 59.9832 246.857 59.2947 246.955 58.3604C247.446 56.836 246.562 55.6558 245.727 54.6231C242.781 51.0826 235.072 49.4598 230.85 51.3776C228.935 52.2136 227.756 53.4921 228.247 55.7542Z" fill="url(#paint0_linear_106_107)"/>
<path d="M145.609 129.565C148.456 131.139 151.697 129.27 154.643 130.598C156.313 131.336 158.326 131.336 160.044 132.123C157.295 134.532 157.688 136.302 161.174 137.63C163.58 138.515 163.776 139.155 162.205 141.318C161.91 141.712 161.616 142.105 161.321 142.498C159.21 145.301 159.553 146.58 162.942 147.859C162.843 148.547 162.352 149.039 161.959 149.481C152.679 159.906 143.399 170.381 134.02 180.707C132.695 182.183 131.713 184.1 129.749 184.887C129.847 183.412 129.749 182.035 128.177 181.347C126.557 180.609 125.575 181.74 124.593 182.773C123.464 183.953 122.334 185.133 121.156 186.264C118.455 188.821 115.46 190.395 111.483 190.1C107.113 189.755 102.988 188.428 98.7652 187.543C95.5245 186.854 94.3952 187.985 94.8371 191.329C94.4934 191.329 94.1496 191.427 93.855 191.329C79.861 188.28 65.8669 185.231 51.8728 182.084C49.8106 181.642 47.8465 180.756 46.3734 179.085C46.8644 172.544 50.5962 167.774 54.819 163.201C66.0142 150.957 77.1113 138.614 88.3065 126.32C89.485 124.992 90.7125 123.615 92.5293 123.124C93.0694 123.025 93.7077 123.074 94.1987 122.878C98.8634 120.862 103.675 120.763 108.586 121.796C113.545 122.829 118.455 124.009 123.414 124.992C130.78 126.517 138.096 128.434 145.609 129.565ZM103.332 176.331C103.479 176.478 103.675 176.675 103.823 176.822L103.774 176.921C104.314 177.757 105.148 178.052 106.032 178.249C110.746 179.183 114.871 177.855 118.406 174.61C120.075 173.085 120.812 171.167 120.026 168.856C119.486 167.43 118.259 166.742 116.884 166.447C111.826 165.316 107.505 166.84 103.921 170.43C102.448 171.905 101.859 173.774 102.841 175.839C103.037 175.986 103.184 176.134 103.332 176.331ZM109.322 131.483H109.371C109.224 130.795 108.684 130.401 108.144 130.008C103.921 127.156 94.1987 130.254 92.382 135.024C91.5472 137.188 92.2347 138.663 94.5916 139.941C99.0598 141.761 105.836 139.892 108.684 136.057C109.617 134.827 110.108 133.499 109.715 131.926C109.519 131.778 109.42 131.631 109.322 131.483ZM96.0646 146.236H96.1137C95.9664 145.203 95.1808 144.76 94.3461 144.367C89.976 142.154 81.6777 144.81 79.4191 149.088C78.1424 151.497 78.7316 153.317 81.2849 154.694C85.8514 156.661 92.873 154.645 95.6718 150.612C96.5065 149.383 96.752 148.104 96.4574 146.678C96.4083 146.482 96.4083 146.236 96.0646 146.236ZM130.78 147.859C133.726 149.973 141.238 148.645 144.676 145.105C146.149 143.58 147.032 142.007 146.492 139.892C146.149 138.663 145.167 138.073 144.135 137.581C139.864 135.762 132.351 138.073 129.798 142.007C128.276 144.269 128.619 146.187 130.78 147.859ZM117.62 162.513C122.187 165.266 130.976 162.66 133.186 157.89C133.677 156.857 134.07 155.776 133.431 154.595C133.382 153.219 132.351 152.678 131.32 152.186C126.901 150.071 118.75 152.727 116.393 157.054C115.165 159.218 115.558 160.89 117.62 162.513ZM67.2418 168.856C71.6118 171.905 80.3029 169.79 83.0035 164.971C83.74 163.693 84.0346 162.414 83.3963 160.988C82.9544 159.562 81.8741 159.021 80.5484 158.579C76.1783 157.202 69.6969 159.267 66.9471 162.955C65.4741 164.971 65.5723 166.889 67.2418 168.856Z" fill="#EAC8FE"/>
<path d="M129.699 184.937C131.664 184.101 132.646 182.232 133.971 180.757C143.35 170.381 152.63 159.956 161.91 149.531C162.352 149.039 162.843 148.596 162.892 147.908C166.182 145.793 168.097 142.695 168.883 138.909C170.258 138.909 170.405 140.188 170.896 141.024C172.762 144.171 173.695 147.662 174.873 151.055C179.833 165.463 184.448 179.97 189.653 194.28C192.55 202.295 190.93 209.868 184.988 216.408C176.69 225.555 168.637 234.898 160.437 244.094C157.049 247.88 153.661 251.618 150.126 255.257C148.456 256.978 146.541 258.404 143.988 258.551C139.814 255.994 137.212 252.208 135.69 247.684C130.485 232.489 125.329 217.294 120.174 202.099C119.339 199.689 118.799 197.23 118.602 194.673C122.678 192.264 126.311 189.362 129.258 185.625C129.601 185.576 129.699 185.428 129.65 185.084L129.699 184.937ZM151.55 200.968C151.501 202.148 151.697 203.23 151.992 204.361C153.121 208.491 156.509 209.475 159.504 206.426C161.861 204.016 163.334 201.164 163.727 197.82C164.022 195.46 163.58 193.247 161.959 191.428C159.995 189.116 157.884 188.969 155.625 191.083C152.777 193.739 151.795 197.23 151.55 200.968ZM179.489 207.016C179.538 208.836 179.734 210.704 181.846 211.098C183.859 211.442 184.694 209.819 185.332 208.295C186.167 206.426 186.56 204.41 185.774 202.394C184.988 200.328 183.417 199.935 181.748 201.361C180.029 202.885 179.538 204.902 179.489 207.016ZM170.651 213.753C170.7 212.229 169.914 210.901 168.981 210.852C167.655 210.753 165.789 213.556 165.839 215.573C165.888 216.753 166.231 217.884 167.704 218.031C169.177 218.08 170.651 215.917 170.651 213.753ZM183.81 192.214C183.564 191.231 183.319 190.051 181.944 189.854C180.618 189.657 178.949 192.264 179.096 194.378C179.194 195.657 179.538 196.886 181.158 196.886C182.484 196.837 183.859 194.427 183.81 192.214ZM173.155 221.67C173.057 220.588 173.106 219.113 171.485 218.769C170.258 218.523 168.736 220.834 168.785 222.85C168.785 224.129 168.588 225.653 170.454 225.899C171.78 226.096 173.106 224.129 173.155 221.67ZM175.61 203.18C175.463 202.197 176.003 200.673 174.137 200.476C172.713 200.328 171.191 202.492 171.191 204.656C171.191 205.885 171.338 207.262 172.811 207.557C174.137 207.852 175.61 205.492 175.61 203.18ZM155.429 238.193C155.527 239.176 155.331 240.652 156.853 240.553C158.915 240.406 159.112 238.488 159.308 236.914C159.455 235.685 158.964 234.308 157.54 234.554C155.724 234.849 155.576 236.57 155.429 238.193ZM157.933 227.522C157.933 228.948 158.228 230.325 159.652 230.177C161.567 229.981 161.665 228.063 161.812 226.588C161.91 225.555 161.959 224.129 160.536 224.178C158.326 224.178 158.473 226.243 157.933 227.522ZM167.262 229.194C167.213 227.866 166.968 226.588 165.642 226.735C163.874 226.932 163.383 228.407 163.383 229.981C163.383 231.112 163.285 232.685 164.807 232.636C166.87 232.587 166.821 230.472 167.262 229.194ZM177.574 213.212C177.476 212.13 177.672 210.999 176.297 210.852C175.119 210.753 173.597 213.065 173.695 214.835C173.744 215.917 174.235 217.048 175.315 216.9C177.328 216.605 177.476 214.786 177.574 213.212ZM175.119 190.788C175.07 188.92 174.726 188.231 173.842 188.231C172.664 188.182 171.142 190.297 171.338 191.919C171.436 192.903 171.583 194.427 172.909 194.28C174.922 193.985 175.021 192.116 175.119 190.788Z" fill="url(#paint1_linear_106_107)"/>
<path d="M224.712 113.387C230.997 108.273 238.902 107.388 246.317 105.273C258.985 101.683 271.702 98.3887 284.371 94.9465C285.795 94.5531 287.268 94.1597 288.692 94.1597C290.852 94.1597 292.669 94.0122 292.62 91.2092C294.24 95.2907 294.338 99.5197 293.356 103.749C289.281 120.763 285.205 137.778 280.983 154.743C279.068 162.513 273.863 167.627 266.35 169.791C248.772 174.905 231.144 179.576 213.517 184.592C210.767 185.379 208.164 184.641 205.513 184.641C204.678 180.56 204.825 176.577 205.906 172.495C209.834 157.546 213.762 142.597 217.445 127.599C218.82 122.239 220.882 117.37 224.712 113.387ZM281.13 110.043C281.13 106.453 279.068 104.831 275.532 105.568C271.064 106.552 266.154 111.912 265.614 116.436C265.172 119.976 266.939 122.239 269.935 122.042C275.238 121.599 281.179 115.256 281.13 110.043ZM229.131 128.09C229.131 131.385 230.948 132.959 234.041 132.467C239.05 131.631 244.156 125.927 244.549 120.812C244.794 117.567 243.076 115.944 239.835 116.19C234.827 116.633 229.131 122.976 229.131 128.09ZM260.507 136.794C260.507 139.794 261.833 141.269 264.484 141.22C270.082 141.171 276.416 134.04 275.876 128.484C275.631 126.123 274.059 124.746 271.751 124.894C266.399 125.14 260.458 131.434 260.507 136.794ZM256.088 155.628C256.039 159.169 257.905 160.693 261.391 160.054C266.203 159.218 271.31 153.612 271.653 148.793C271.85 146.137 270.278 144.367 267.627 144.318C262.815 144.22 256.137 150.76 256.088 155.628ZM228.64 151.694C233.894 151.743 240.621 144.613 240.228 139.351C240.032 136.991 238.313 135.467 235.956 135.565C230.653 135.86 224.515 142.646 224.712 147.957C224.859 150.416 226.185 151.694 228.64 151.694ZM235.121 159.316C235.22 156.218 233.55 154.743 230.309 155.087C225.35 155.628 219.802 161.824 219.802 166.84C219.802 169.397 221.422 170.922 223.975 170.774C228.984 170.479 234.974 164.332 235.121 159.316ZM274.747 158.579C274.747 157.103 274.01 156.267 272.488 156.366C270.131 156.464 266.203 160.251 265.957 162.611C265.712 164.824 266.498 165.66 268.658 165.463C271.31 165.168 274.796 161.234 274.747 158.579ZM249.312 165.955C251.816 165.955 255.008 162.365 254.664 159.906C254.468 158.579 253.682 158.087 252.454 158.333C250.294 158.726 247.593 161.677 247.397 163.84C247.2 165.266 247.839 165.955 249.312 165.955ZM238.902 171.463C238.951 170.036 238.313 169.299 236.84 169.446C234.532 169.643 231.537 172.938 231.586 175.2C231.586 176.331 231.881 177.167 233.206 177.167C235.416 177.167 238.902 173.675 238.902 171.463ZM278.626 149.235C278.577 148.498 278.282 147.957 277.349 147.908C276.023 147.859 273.372 150.514 273.421 151.842C273.47 152.776 274.059 153.071 274.894 153.071C276.367 153.071 278.577 150.809 278.626 149.235ZM249.656 170.184C249.557 169.446 249.165 169.004 248.232 169.053C246.955 169.151 244.5 171.659 244.5 172.889C244.5 173.97 245.187 174.265 246.12 174.216C247.544 174.118 249.754 171.708 249.656 170.184ZM262.864 162.168C262.913 161.677 262.422 161.185 261.587 161.136C260.016 160.988 257.463 163.644 257.708 165.217C257.807 165.955 258.248 166.348 259.034 166.348C260.262 166.299 262.766 163.84 262.864 162.168ZM278.577 138.368C278.577 138.122 278.233 137.679 277.496 137.532C275.778 137.188 272.979 140.236 273.47 141.859C273.666 142.499 274.108 142.744 274.796 142.695C276.072 142.597 278.528 140.138 278.577 138.368ZM240.523 166.299C242.241 166.25 244.303 163.988 244.254 162.611C244.254 161.775 243.911 161.185 242.978 161.185C241.701 161.136 239.442 163.398 239.442 164.726C239.491 165.611 239.786 166.299 240.523 166.299Z" fill="url(#paint2_linear_106_107)"/>
<path d="M118.652 194.525C118.799 197.082 119.388 199.541 120.223 201.951C125.379 217.146 130.534 232.341 135.739 247.536C137.31 252.06 139.864 255.846 144.037 258.403C140.453 260.961 136.328 261.206 132.302 260.469C123.66 258.846 115.067 256.781 106.474 254.912C96.8503 252.798 87.1772 250.683 77.5532 248.421C69.7951 246.602 64.5412 241.782 61.9879 234.259C56.8813 219.31 51.8237 204.36 46.7171 189.46C45.7351 186.608 44.9495 183.707 45.0477 180.609C45.0968 179.625 45.195 178.986 46.3734 179.232C47.8465 180.855 49.8106 181.74 51.8728 182.232C65.8669 185.379 79.861 188.428 93.855 191.477C94.1497 191.526 94.4934 191.477 94.8371 191.477C95.4263 192.067 96.0646 192.509 96.8994 192.706C100.386 193.493 103.872 194.427 107.358 195.116C111.09 195.755 114.92 195.804 118.652 194.525ZM100.926 195.46C98.6179 196.197 97.7341 197.574 98.1269 200.033C98.8143 204.655 104.363 209.966 109.028 210.311C110.992 210.458 112.808 210.163 113.349 207.753C113.496 207.36 113.741 207.016 113.741 206.622C113.545 200.869 106.671 194.87 100.926 195.46ZM87.7173 237.307C88.3065 236.816 88.2083 236.127 88.1592 235.488C87.9137 229.784 80.9903 223.883 75.2945 224.522C72.7412 225.112 72.2011 226.932 72.5448 229.194C73.3304 233.914 78.7807 239.029 83.4945 239.471C85.3604 239.619 86.9808 239.274 87.7173 237.307ZM75.9328 199.935C76.522 199.394 76.3256 198.754 76.1783 198.115C75.049 193.149 71.8083 190.1 67.34 188.182C66.0142 187.592 64.5903 187.149 63.1172 187.887C61.2513 188.477 60.6621 189.854 60.7112 191.673C60.8094 196.689 67.34 202.983 72.3484 202.836C74.2142 202.738 75.7364 202.098 75.9328 199.935ZM125.575 245.175C126.557 241.389 124.446 238.783 122.04 236.472C119.634 234.111 117.031 231.849 113.152 232.833C110.893 233.128 110.255 234.652 110.304 236.668C110.452 241.881 117.277 248.077 122.432 247.634C124.053 247.487 125.329 246.946 125.575 245.175Z" fill="url(#paint3_linear_106_107)"/>
<path d="M224.712 113.387C220.882 117.42 218.82 122.239 217.494 127.599C213.811 142.597 209.883 157.546 205.955 172.495C204.875 176.528 204.727 180.56 205.562 184.641C201.143 184.543 197.706 182.281 194.514 179.576C190.242 175.987 187.296 171.709 185.725 166.152C183.564 158.53 180.667 151.153 178.065 143.679C177.083 140.827 175.855 138.073 173.891 135.663C173.056 134.68 172.762 133.598 172.86 132.27C173.056 128.976 172.664 125.73 170.405 123.075C170.356 122.976 170.258 122.829 170.209 122.73C170.061 122.534 169.914 122.337 169.767 122.14C168.441 120.468 166.87 119.042 164.562 119.682C162.156 120.37 161.567 122.485 161.321 124.697C161.272 124.943 161.272 125.189 161.272 125.435C160.879 126.074 160.339 126.173 159.603 125.976C156.804 125.288 154.054 124.599 151.255 124.107C149.733 123.812 149.684 123.124 150.028 121.894C154.496 104.732 158.866 87.5213 163.383 70.3593C164.169 67.4088 165.544 64.7041 167.852 62.5896C168.244 65.2451 169.865 67.2612 171.633 69.0315C180.274 77.6371 188.867 86.2427 197.706 94.6024C201.094 97.7988 204.58 100.897 207.722 104.339C212.24 109.502 217.788 112.65 224.712 113.387ZM183.908 131.041C184.055 131.287 184.252 131.533 184.399 131.828C188.082 133.254 190.34 132.418 191.126 128.926C192.059 124.55 191.519 120.37 188.524 116.78C185.627 113.289 182.68 112.945 180.864 115.993C178.409 120.075 180.078 128.189 183.908 131.09V131.041ZM203.058 124.648C203.205 124.796 203.352 124.943 203.5 125.091C207.231 126.615 209.637 125.681 210.325 122.042C211.16 117.665 210.669 113.436 207.526 109.896C206.249 108.273 204.776 106.994 202.567 107.339C200.701 107.634 199.768 109.109 199.375 110.732C198.098 116.043 199.13 120.763 203.107 124.697L203.058 124.648ZM193.237 163.3C197.46 164.726 199.522 164.086 200.357 160.693C201.339 156.612 200.946 152.58 198.246 149.088C196.92 147.121 195.447 145.351 192.795 145.646C190.733 145.892 189.8 147.613 189.407 149.383C188.376 154.596 189.407 159.316 193.237 163.3ZM179.685 83.2922C178.409 81.5711 176.837 80.1942 174.579 80.686C172.467 81.1285 171.583 82.948 171.338 84.8658C170.65 89.685 171.534 94.1107 175.07 97.7004C177.918 100.307 181.158 99.6674 182.288 96.0777C183.761 91.4061 182.73 87.1279 179.685 83.2922Z" fill="url(#paint4_radial_106_107)"/>
<path d="M168.932 138.86C168.146 142.646 166.231 145.744 162.941 147.859C159.603 146.58 159.21 145.302 161.321 142.499C161.616 142.105 161.91 141.761 162.205 141.318C163.727 139.155 163.58 138.515 161.174 137.63C157.638 136.303 157.295 134.532 160.044 132.123C164.758 132.221 167.999 134.631 168.932 138.86Z" fill="white"/>
<path d="M145.609 129.565C138.096 128.434 130.78 126.517 123.365 125.041C118.406 124.058 113.496 122.878 108.537 121.845C103.626 120.812 98.8143 120.911 94.1496 122.927C93.6586 123.124 93.0694 123.124 92.4802 123.173C97.3413 119.829 102.742 119.14 108.389 120.37C120.174 122.927 131.958 125.533 143.743 128.09C144.626 128.287 145.658 128.238 145.609 129.565Z" fill="white"/>
<path d="M170.11 122.779C170.159 122.878 170.258 123.025 170.307 123.124C168.343 123.517 166.87 124.55 165.544 126.123C163.874 128.14 162.303 127.845 161.174 125.484C161.174 125.238 161.223 124.992 161.223 124.746C161.468 122.534 162.058 120.419 164.464 119.731C166.771 119.042 168.343 120.468 169.668 122.189C169.816 122.386 169.963 122.583 170.11 122.779Z" fill="#6B4AA4"/>
<path d="M246.906 58.3606C246.808 59.3441 246.268 60.0325 245.531 60.5734C240.915 64.1632 230.457 61.2619 228.198 55.7543C230.162 53.9348 232.47 53.3939 235.121 53.2956C239.983 53.0989 243.616 55.2134 246.906 58.3606Z" fill="#FEFBFE"/>
<path d="M240.474 78.4727C239.295 81.0298 236.938 81.2757 234.581 81.5216C229.082 82.0133 223.828 79.5054 221.815 75.4239C226.627 70.8506 237.233 72.8668 240.474 78.4727Z" fill="#FEFBFE"/>
<path d="M235.956 97.0611C234.287 100.012 231.439 100.257 228.542 100.061C223.975 99.7657 219.703 98.6838 217.347 94.1106C221.962 89.8324 232.126 91.2093 235.956 97.0611Z" fill="#FEFBFE"/>
<path d="M235.956 97.0609C232.126 91.2091 221.913 89.8322 217.347 94.1104C217.15 91.2582 217.887 89.9305 220.538 89.1437C225.694 87.6193 230.309 88.8487 234.483 92.1434C236.153 93.4711 236.153 95.2414 235.956 97.0609Z" fill="#6B4AA4"/>
<path d="M240.474 78.4729C237.233 72.867 226.627 70.8016 221.815 75.4241C221.324 72.9653 222.6 71.5884 224.712 70.7033C229.033 68.8838 236.349 70.5558 239.442 74.0964C240.474 75.3257 241.456 76.7026 240.474 78.4729Z" fill="#6B4AA4"/>
<path d="M246.906 58.3606C243.616 55.2134 239.933 53.0989 235.171 53.2956C232.519 53.3939 230.162 53.9348 228.247 55.7543C227.756 53.4923 228.935 52.2137 230.8 51.3778C235.023 49.4599 242.732 51.1319 245.678 54.6233C246.562 55.656 247.446 56.8362 246.906 58.3606Z" fill="#6B4AA4"/>
<path d="M118.651 194.526C114.92 195.804 111.09 195.706 107.309 194.968C103.823 194.28 100.336 193.345 96.8502 192.559C96.0155 192.362 95.3772 191.919 94.7879 191.329C94.346 187.985 95.4754 186.904 98.7161 187.543C102.939 188.428 107.063 189.756 111.434 190.1C115.411 190.395 118.406 188.821 121.107 186.264C122.285 185.133 123.414 183.953 124.544 182.773C125.526 181.74 126.459 180.658 128.128 181.347C129.699 182.035 129.798 183.412 129.699 184.887V184.937C129.552 185.133 129.454 185.281 129.307 185.477C126.361 189.264 122.727 192.116 118.651 194.526Z" fill="white"/>
<path d="M120.026 168.856C120.812 171.167 120.075 173.085 118.406 174.61C114.92 177.855 110.795 179.183 106.032 178.249C105.148 178.052 104.314 177.757 103.774 176.921C104.461 176.724 104.805 176.183 105.05 175.544C105.885 173.282 107.554 171.905 109.568 170.627C112.907 168.561 116.491 168.955 120.026 168.856Z" fill="#FEFBFE"/>
<path d="M83.3962 160.988C84.0346 162.365 83.74 163.693 83.0034 164.971C80.2537 169.79 71.6118 171.905 67.2417 168.856C68.0273 168.856 68.371 168.512 68.5675 167.725C69.2549 165.168 71.0717 163.693 73.3303 162.513C76.522 160.939 79.8609 160.201 83.3962 160.988Z" fill="#FEFBFE"/>
<path d="M133.382 154.596C134.07 155.727 133.628 156.809 133.137 157.89C130.976 162.66 122.138 165.267 117.571 162.513C119.241 161.775 118.553 159.759 119.732 158.579C123.611 154.743 128.079 153.268 133.382 154.596Z" fill="#FEFBFE"/>
<path d="M96.4574 146.727C96.752 148.153 96.5065 149.432 95.6718 150.661C92.873 154.694 85.8514 156.71 81.2849 154.743C81.334 152.136 82.6598 150.317 84.673 148.793C88.1101 146.186 92.1365 146.186 96.1137 146.235H96.0646C96.2119 146.383 96.3101 146.58 96.4574 146.727Z" fill="#FEFBFE"/>
<path d="M146.492 139.843C147.032 141.958 146.149 143.58 144.676 145.056C141.238 148.645 133.726 149.973 130.78 147.809C134.315 140.876 138.832 138.614 146.492 139.843Z" fill="#FEFBFE"/>
<path d="M109.666 131.926C110.059 133.5 109.568 134.827 108.635 136.057C105.787 139.892 99.0598 141.761 94.5425 139.942C94.4934 137.335 95.8191 135.565 97.9305 134.139C101.417 131.779 105.296 131.287 109.322 131.484H109.273C109.42 131.631 109.519 131.779 109.666 131.926Z" fill="#FEFBFE"/>
<path d="M133.382 154.595C128.079 153.268 123.611 154.743 119.781 158.579C118.602 159.759 119.339 161.726 117.62 162.513C115.558 160.89 115.165 159.267 116.344 157.054C118.651 152.776 126.852 150.071 131.271 152.186C132.302 152.678 133.333 153.268 133.382 154.595Z" fill="#6B4AA4"/>
<path d="M120.026 168.856C116.442 168.955 112.907 168.561 109.568 170.627C107.554 171.856 105.836 173.282 105.05 175.544C104.805 176.183 104.461 176.724 103.774 176.921L103.823 176.823C103.675 176.675 103.479 176.478 103.332 176.331C103.135 176.183 102.988 175.987 102.792 175.839C101.81 173.774 102.399 171.905 103.872 170.43C107.456 166.84 111.777 165.316 116.835 166.447C118.308 166.742 119.486 167.43 120.026 168.856Z" fill="#6B4AA4"/>
<path d="M96.1137 146.236C92.0873 146.187 88.11 146.187 84.6729 148.793C82.6597 150.317 81.334 152.137 81.2849 154.743C78.7807 153.317 78.1914 151.498 79.419 149.137C81.6777 144.81 89.9759 142.203 94.346 144.416C95.1807 144.761 95.9664 145.203 96.1137 146.236Z" fill="#6B4AA4"/>
<path d="M83.3963 160.988C79.8118 160.152 76.522 160.939 73.3304 162.562C71.0717 163.693 69.2549 165.217 68.5675 167.774C68.3711 168.512 67.9783 168.905 67.2417 168.905C65.5723 166.938 65.4741 165.021 66.9471 163.005C69.6968 159.316 76.1783 157.251 80.5484 158.628C81.8741 159.021 83.0035 159.562 83.3963 160.988Z" fill="#6B4AA4"/>
<path d="M146.492 139.843C138.832 138.564 134.315 140.876 130.78 147.859C128.619 146.187 128.275 144.269 129.798 141.958C132.351 138.073 139.864 135.712 144.135 137.532C145.216 138.024 146.149 138.663 146.492 139.843Z" fill="#6B4AA4"/>
<path d="M109.371 131.483C105.296 131.287 101.466 131.779 97.9796 134.139C95.8682 135.565 94.5425 137.335 94.5916 139.942C92.2347 138.663 91.5472 137.188 92.382 135.024C94.1987 130.254 103.97 127.156 108.144 130.008C108.684 130.402 109.175 130.795 109.371 131.483Z" fill="#6B4AA4"/>
<path d="M102.841 175.839C103.037 175.986 103.184 176.183 103.381 176.331C103.184 176.134 103.037 175.986 102.841 175.839Z" fill="#DD8C14"/>
<path d="M103.332 176.331C103.479 176.478 103.675 176.675 103.823 176.823C103.675 176.675 103.528 176.478 103.332 176.331Z" fill="#DD8C14"/>
<path d="M96.4574 146.728C96.3101 146.58 96.2119 146.433 96.0646 146.236C96.4083 146.236 96.4083 146.482 96.4574 146.728Z" fill="#C87814"/>
<path d="M109.666 131.926C109.568 131.778 109.42 131.631 109.322 131.483C109.42 131.631 109.519 131.778 109.666 131.926Z" fill="#C87814"/>
<path d="M151.55 200.968C151.795 197.231 152.777 193.739 155.625 191.034C157.835 188.92 159.946 189.067 161.959 191.379C163.58 193.247 164.022 195.411 163.727 197.771C163.334 201.115 161.812 204.017 159.504 206.377C156.509 209.426 153.121 208.492 151.992 204.312C151.697 203.23 151.501 202.148 151.55 200.968Z" fill="#FEFBFE"/>
<path d="M179.489 207.016C179.538 204.901 180.029 202.836 181.748 201.361C183.417 199.935 184.988 200.328 185.774 202.393C186.56 204.41 186.167 206.426 185.332 208.294C184.694 209.819 183.859 211.442 181.846 211.097C179.734 210.704 179.587 208.835 179.489 207.016Z" fill="#6B4AA4"/>
<path d="M170.651 213.753C170.601 215.916 169.177 218.08 167.754 217.982C166.28 217.883 165.937 216.752 165.888 215.523C165.789 213.458 167.704 210.704 169.03 210.802C169.914 210.901 170.7 212.228 170.651 213.753Z" fill="#6B4AA4"/>
<path d="M183.81 192.214C183.859 194.476 182.484 196.836 181.158 196.886C179.538 196.886 179.194 195.656 179.096 194.378C178.949 192.263 180.618 189.657 181.944 189.854C183.319 190.001 183.564 191.23 183.81 192.214Z" fill="#6B4AA4"/>
<path d="M173.155 221.67C173.106 224.129 171.829 226.096 170.405 225.899C168.588 225.653 168.785 224.129 168.736 222.85C168.736 220.834 170.258 218.473 171.436 218.769C173.106 219.113 173.057 220.588 173.155 221.67Z" fill="#6B4AA4"/>
<path d="M175.61 203.18C175.61 205.491 174.137 207.852 172.86 207.557C171.338 207.262 171.24 205.885 171.24 204.655C171.24 202.443 172.762 200.279 174.186 200.476C176.003 200.672 175.463 202.197 175.61 203.18Z" fill="#6B4AA4"/>
<path d="M155.429 238.193C155.527 236.57 155.724 234.8 157.589 234.505C159.013 234.259 159.504 235.636 159.357 236.865C159.161 238.439 158.964 240.357 156.902 240.504C155.38 240.652 155.527 239.225 155.429 238.193Z" fill="#6B4AA4"/>
<path d="M157.933 227.522C158.473 226.244 158.326 224.178 160.536 224.129C162.009 224.08 161.959 225.506 161.812 226.539C161.616 228.063 161.567 229.932 159.652 230.128C158.228 230.325 157.933 228.948 157.933 227.522Z" fill="#6B4AA4"/>
<path d="M167.263 229.194C166.821 230.521 166.87 232.587 164.758 232.685C163.285 232.734 163.334 231.161 163.334 230.03C163.334 228.456 163.825 226.932 165.593 226.784C166.968 226.587 167.164 227.866 167.263 229.194Z" fill="#6B4AA4"/>
<path d="M177.574 213.212C177.476 214.786 177.328 216.556 175.315 216.851C174.235 216.998 173.744 215.867 173.695 214.786C173.646 213.015 175.119 210.704 176.297 210.802C177.672 210.999 177.476 212.179 177.574 213.212Z" fill="#6B4AA4"/>
<path d="M175.119 190.788C175.021 192.116 174.922 193.984 172.909 194.23C171.583 194.427 171.485 192.853 171.338 191.87C171.142 190.247 172.713 188.133 173.842 188.182C174.726 188.28 175.07 188.919 175.119 190.788Z" fill="#6B4AA4"/>
<path d="M129.307 185.527C129.454 185.33 129.552 185.182 129.699 184.986C129.798 185.33 129.65 185.477 129.307 185.527Z" fill="#FED17A"/>
<path d="M281.13 110.043C281.13 115.305 275.238 121.599 269.935 122.042C266.939 122.288 265.172 120.026 265.614 116.436C266.154 111.912 271.064 106.552 275.532 105.568C279.068 104.782 281.13 106.454 281.13 110.043Z" fill="#FEFBFE"/>
<path d="M229.131 128.091C229.131 122.976 234.827 116.633 239.835 116.239C243.076 115.944 244.795 117.616 244.549 120.862C244.205 125.976 239.05 131.68 234.041 132.516C230.948 132.959 229.18 131.385 229.131 128.091Z" fill="#FEFBFE"/>
<path d="M260.507 136.794C260.458 131.483 266.399 125.14 271.702 124.894C274.01 124.796 275.581 126.123 275.827 128.484C276.367 134.041 270.033 141.171 264.435 141.22C261.833 141.22 260.507 139.745 260.507 136.794Z" fill="#FEFBFE"/>
<path d="M256.088 155.628C256.137 150.76 262.815 144.22 267.676 144.318C270.328 144.367 271.899 146.088 271.702 148.793C271.359 153.661 266.252 159.267 261.44 160.054C257.905 160.644 256.088 159.12 256.088 155.628Z" fill="#FEFBFE"/>
<path d="M228.64 151.694C226.185 151.694 224.81 150.416 224.712 148.006C224.466 142.646 230.604 135.86 235.956 135.614C238.264 135.516 240.032 137.04 240.228 139.4C240.621 144.613 233.943 151.743 228.64 151.694Z" fill="#FEFBFE"/>
<path d="M235.121 159.316C234.974 164.283 228.984 170.43 223.975 170.774C221.422 170.922 219.802 169.397 219.802 166.84C219.802 161.873 225.35 155.677 230.309 155.087C233.55 154.743 235.22 156.218 235.121 159.316Z" fill="#FEFBFE"/>
<path d="M274.747 158.579C274.796 161.234 271.26 165.168 268.658 165.414C266.448 165.611 265.663 164.824 265.957 162.562C266.252 160.202 270.18 156.415 272.488 156.317C274.01 156.317 274.747 157.104 274.747 158.579Z" fill="#7138C9"/>
<path d="M249.312 165.955C247.839 166.004 247.2 165.266 247.348 163.84C247.593 161.677 250.245 158.726 252.405 158.333C253.682 158.087 254.418 158.579 254.615 159.906C254.959 162.316 251.816 165.906 249.312 165.955Z" fill="#7138C9"/>
<path d="M238.902 171.462C238.902 173.675 235.416 177.167 233.206 177.167C231.881 177.167 231.586 176.331 231.586 175.2C231.586 172.889 234.581 169.643 236.84 169.446C238.313 169.299 239 170.036 238.902 171.462Z" fill="#7138C9"/>
<path d="M278.626 149.235C278.577 150.809 276.318 153.12 274.894 153.12C274.059 153.12 273.47 152.825 273.421 151.891C273.372 150.563 276.023 147.908 277.349 147.957C278.282 147.908 278.626 148.498 278.626 149.235Z" fill="#7138C9"/>
<path d="M249.656 170.184C249.754 171.708 247.544 174.118 246.12 174.216C245.187 174.265 244.5 173.97 244.5 172.888C244.5 171.659 246.955 169.151 248.232 169.053C249.165 169.004 249.557 169.446 249.656 170.184Z" fill="#7138C9"/>
<path d="M262.864 162.169C262.766 163.841 260.262 166.299 258.985 166.348C258.199 166.348 257.757 165.955 257.659 165.217C257.414 163.693 259.967 160.988 261.538 161.136C262.471 161.185 262.913 161.628 262.864 162.169Z" fill="#7138C9"/>
<path d="M278.577 138.368C278.528 140.138 276.072 142.597 274.796 142.695C274.157 142.745 273.666 142.499 273.47 141.859C272.93 140.187 275.729 137.139 277.496 137.532C278.233 137.68 278.577 138.122 278.577 138.368Z" fill="#7138C9"/>
<path d="M240.523 166.299C239.786 166.299 239.491 165.61 239.491 164.725C239.491 163.397 241.701 161.135 243.027 161.185C243.96 161.234 244.303 161.775 244.303 162.611C244.303 164.037 242.241 166.25 240.523 166.299Z" fill="#7138C9"/>
<path d="M113.201 232.833C117.031 231.849 119.683 234.111 122.089 236.472C124.446 238.783 126.606 241.389 125.624 245.176C118.848 245.077 113.152 239.422 113.201 232.833Z" fill="#FEFBFE"/>
<path d="M63.1172 187.887C64.5902 187.149 66.0142 187.641 67.34 188.182C71.8082 190.1 75.049 193.149 76.1783 198.115C76.3256 198.755 76.522 199.394 75.9328 199.935C69.2058 199.984 63.6573 194.771 63.1172 187.887Z" fill="#FEFBFE"/>
<path d="M75.3436 224.522C80.9903 223.883 87.9137 229.784 88.2083 235.488C88.2574 236.128 88.3065 236.816 87.7664 237.308C87.3245 237.16 86.8825 236.914 86.3915 236.816C80.3029 236.029 75.4418 230.669 75.3436 224.522Z" fill="#FEFBFE"/>
<path d="M100.926 195.46C106.72 194.87 113.594 200.869 113.692 206.672C113.692 207.065 113.447 207.409 113.299 207.803C106.572 207.704 100.926 202.098 100.926 195.46Z" fill="#FEFBFE"/>
<path d="M75.3436 224.522C75.4418 230.669 80.2538 236.029 86.3915 236.816C86.8335 236.865 87.2754 237.111 87.7664 237.307C87.0299 239.274 85.3604 239.619 83.5927 239.471C78.8789 239.029 73.4286 233.914 72.643 229.194C72.2502 226.981 72.7903 225.112 75.3436 224.522Z" fill="#6B4AA4"/>
<path d="M100.926 195.46C100.975 202.098 106.572 207.704 113.299 207.753C112.759 210.163 110.942 210.458 108.978 210.311C104.314 209.966 98.7652 204.655 98.0778 200.033C97.734 197.623 98.5688 196.247 100.926 195.46Z" fill="#6B4AA4"/>
<path d="M63.1172 187.887C63.6573 194.82 69.2058 200.033 75.9328 199.935C75.6873 202.098 74.2142 202.738 72.3483 202.787C67.3399 202.934 60.8094 196.64 60.7112 191.624C60.6621 189.854 61.2513 188.428 63.1172 187.887Z" fill="#6B4AA4"/>
<path d="M113.201 232.833C113.152 239.422 118.848 245.077 125.575 245.176C125.329 246.995 124.053 247.536 122.432 247.635C117.277 248.077 110.402 241.881 110.304 236.669C110.304 234.652 110.943 233.128 113.201 232.833Z" fill="#6B4AA4"/>
<path d="M179.685 83.292C182.779 87.0784 183.81 91.3566 182.337 96.0774C181.207 99.6672 177.967 100.306 175.119 97.7002C174.677 95.8807 174.186 94.0612 173.842 92.2418C172.762 86.9309 175.07 83.4395 179.685 83.292Z" fill="#FEFBFE"/>
<path d="M207.477 109.846C210.619 113.387 211.16 117.616 210.276 121.992C209.588 125.631 207.231 126.566 203.451 125.041C203.303 124.894 203.156 124.746 203.009 124.599V124.648C202.272 121.648 201.241 118.747 201.536 115.551C201.83 112.207 203.058 110.731 206.348 110.289C206.79 110.289 207.133 110.043 207.477 109.846Z" fill="#FEFBFE"/>
<path d="M188.524 116.731C191.568 120.321 192.059 124.501 191.126 128.877C190.39 132.369 188.082 133.205 184.399 131.778C184.252 131.533 184.055 131.287 183.908 130.992V131.041C183.368 128.287 182.14 125.632 182.435 122.681C182.828 118.649 184.497 116.878 188.524 116.731Z" fill="#FEFBFE"/>
<path d="M198.295 149.039C200.996 152.53 201.388 156.563 200.406 160.644C199.572 164.086 197.509 164.726 193.286 163.25C192.894 160.447 191.617 157.841 191.764 154.841C192.01 150.268 193.778 148.547 198.295 149.039Z" fill="#FEFBFE"/>
<path d="M198.295 149.039C193.778 148.547 192.01 150.268 191.764 154.891C191.568 157.841 192.894 160.448 193.287 163.3C189.408 159.366 188.376 154.596 189.506 149.334C189.899 147.515 190.831 145.843 192.894 145.597C195.496 145.252 196.969 147.072 198.295 149.039Z" fill="#6B4AA4"/>
<path d="M207.477 109.846C207.133 109.994 206.741 110.24 206.397 110.289C203.107 110.731 201.879 112.207 201.585 115.551C201.29 118.747 202.37 121.648 203.058 124.648C199.081 120.714 198.049 115.944 199.326 110.682C199.719 109.06 200.603 107.584 202.518 107.289C204.776 106.994 206.249 108.273 207.477 109.846Z" fill="#6B4AA4"/>
<path d="M188.524 116.731C184.497 116.879 182.828 118.649 182.435 122.73C182.189 125.681 183.368 128.287 183.908 131.09C180.029 128.14 178.409 120.026 180.864 115.993C182.68 112.945 185.676 113.24 188.524 116.731Z" fill="#6B4AA4"/>
<path d="M179.685 83.2921C175.07 83.4396 172.762 86.931 173.793 92.2419C174.137 94.0614 174.628 95.8808 175.07 97.7003C171.485 94.1105 170.601 89.6848 171.338 84.8657C171.633 82.9478 172.467 81.1284 174.579 80.6858C176.837 80.2432 178.409 81.5709 179.685 83.2921Z" fill="#6B4AA4"/>
<path d="M170.11 122.78C169.963 122.583 169.816 122.386 169.668 122.189C169.816 122.386 169.963 122.583 170.11 122.78Z" fill="#C87814"/>
<path d="M203.058 124.648C203.205 124.796 203.352 124.943 203.5 125.091C203.352 124.943 203.205 124.796 203.058 124.648Z" fill="#8E3F14"/>
<path d="M183.908 131.041C184.055 131.287 184.252 131.533 184.399 131.828C184.252 131.533 184.104 131.287 183.908 131.041Z" fill="#8E3F14"/>
<path d="M203.778 185.5C205.855 176.845 209.092 162.481 211.892 150.391C215.206 136.086 216.094 117.899 228.778 110.5V110.5C234.778 107 278.778 96.5 282.278 95.5C285.778 94.5 292.278 94 293.278 91.5C294.078 89.5 293.611 88.3333 293.278 87.5" stroke="#F7F6FA" stroke-width="3" stroke-linecap="round"/>
<path d="M225.278 112.5C222.611 113.167 215.378 111.7 207.778 104.5C198.278 95.5 174.278 70.5 172.278 69C170.278 67.5 167.278 63.5 167.778 61.5" stroke="#F6F6FA" stroke-width="3" stroke-linecap="round"/>
</g>
<path d="M149 259C145.833 260.167 138.5 259.8 134.5 249C129.5 235.5 115.5 197.5 117 194.5" stroke="white" stroke-width="3" stroke-linecap="round"/>
<g filter="url(#filter1_f_106_107)">
<circle cx="86" cy="75" r="7" fill="#8D43F1" fill-opacity="0.2"/>
</g>
<circle cx="127.5" cy="77.5" r="3.5" fill="#8D43F1" fill-opacity="0.1"/>
<g filter="url(#filter2_f_106_107)">
<circle cx="7.5" cy="238.5" r="3.5" fill="#8D43F1" fill-opacity="0.1"/>
</g>
<circle cx="37.5" cy="215.5" r="3.5" fill="#8D43F1" fill-opacity="0.1"/>
<circle cx="232" cy="246" r="7" fill="#8D43F1" fill-opacity="0.1"/>
<circle cx="238.5" cy="227.5" r="3.5" fill="#8D43F1" fill-opacity="0.1"/>
<g filter="url(#filter3_f_106_107)">
<circle cx="209.5" cy="248.5" r="1.5" fill="#8D43F1" fill-opacity="0.5"/>
</g>
<circle cx="253.5" cy="190.5" r="1.5" fill="#FED17A"/>
<circle cx="313.5" cy="77.5" r="1.5" fill="#8D43F1" fill-opacity="0.1"/>
<circle cx="11.5" cy="135.5" r="1.5" fill="#DD8C14"/>
<circle cx="99.5" cy="49.5" r="1.5" fill="#FED17A"/>
<circle cx="22.5" cy="219.5" r="1.5" fill="#DD8C14"/>
<circle cx="37.5" cy="245.5" r="1.5" fill="#8D43F1" fill-opacity="0.5"/>
<circle cx="315.5" cy="64.5" r="1.5" fill="#8D43F1" fill-opacity="0.2"/>
<circle cx="83.5" cy="91.5" r="1.5" fill="#DD8C14"/>
<circle cx="228.5" cy="241.5" r="1.5" fill="#FED17A"/>
<path d="M277.662 170.271C271.856 174.754 264.723 175.986 257.933 177.908C244.404 181.751 230.924 185.692 217.345 189.388C208.441 191.802 200.323 189.979 193.189 184.116C192.894 183.869 192.599 183.672 191.812 183.032C192.993 186.431 193.977 189.24 194.961 192.097C198.454 202.494 196.535 211.756 189.254 219.935C178.529 232.007 167.853 244.078 157.226 256.248C149.846 264.673 140.794 267.826 129.872 265.461C112.456 261.618 95.0895 257.726 77.7227 253.686C68.326 251.518 61.7827 245.753 58.6341 236.687C53.0747 220.773 47.6138 204.859 42.3989 188.796C39.2994 179.238 41.4149 170.418 48.1058 162.929C60.0608 149.577 72.1142 136.225 84.3152 123.069C90.9569 115.827 99.4188 113.018 109.062 114.94C120.525 117.206 131.938 119.867 143.352 122.429C145.173 122.823 145.911 122.675 146.403 120.655C150.732 103.41 155.061 86.215 159.686 69.0689C162.244 59.5104 168.787 53.5979 178.135 50.691C180.201 50.0504 182.464 49.8534 184.383 48.7694C191.369 47.3406 198.158 45.1234 205.046 43.3496C214 41.0339 222.856 38.2748 231.908 36.3532C240.173 34.5795 247.75 36.9445 253.948 42.7584C264.624 52.8589 275.054 63.1564 285.582 73.3554C288.534 76.2131 291.732 78.8244 294.241 82.0763C299.555 88.9249 301.276 96.6111 299.21 105.036C295.225 121.591 291.043 138.146 287.108 154.75C285.484 160.909 282.385 166.033 277.662 170.271ZM170.559 123.069C172.822 125.73 173.215 128.982 173.018 132.283C172.92 133.613 173.215 134.648 174.052 135.683C176.019 138.048 177.249 140.807 178.233 143.714C180.841 151.203 183.694 158.643 185.908 166.23C187.483 171.749 190.434 176.085 194.715 179.681C197.962 182.391 201.356 184.658 205.784 184.756C208.441 184.805 211.048 185.495 213.803 184.707C231.416 179.731 249.127 175.001 266.74 169.876C274.267 167.709 279.482 162.584 281.401 154.8C285.632 137.801 289.715 120.754 293.798 103.706C294.832 99.4688 294.733 95.2808 293.061 91.1421C292.224 87.9395 290.355 85.3774 288.042 83.111C275.891 71.3846 263.64 59.7567 251.538 47.9811C244.994 41.6252 237.32 39.7529 228.71 42.0686C212.573 46.3552 196.486 50.7402 180.398 55.1746C175.626 56.5049 171.1 58.4264 167.902 62.5159C165.59 64.6345 164.212 67.3444 163.425 70.3006C158.948 87.4961 154.52 104.741 150.043 121.936C149.699 123.217 149.748 123.907 151.273 124.153C154.077 124.646 156.882 125.385 159.637 126.026C160.375 126.223 160.916 126.075 161.309 125.484C162.441 127.849 164.015 128.194 165.688 126.124C167.115 124.498 168.591 123.464 170.559 123.069ZM169.181 138.836C168.197 134.648 164.999 132.234 160.227 132.086C158.505 131.298 156.488 131.298 154.815 130.559C151.863 129.228 148.616 131.1 145.763 129.524C145.812 128.194 144.779 128.243 143.943 128.046C132.135 125.434 120.328 122.823 108.52 120.31C102.863 119.078 97.4509 119.818 92.5804 123.119C90.7601 123.661 89.5793 125.04 88.3494 126.321C77.1815 138.639 66.0629 151.006 54.7966 163.274C50.5657 167.906 46.8266 172.636 46.3347 179.189C45.1539 178.942 45.0555 179.632 45.0063 180.568C44.9079 183.672 45.6951 186.579 46.679 189.437C51.7956 204.415 56.8629 219.393 61.9795 234.322C64.587 241.91 69.8019 246.689 77.5751 248.512C87.2178 250.779 96.8606 252.848 106.552 255.016C115.162 256.937 123.772 258.958 132.43 260.583C136.465 261.323 140.597 261.076 144.189 258.514C146.747 258.366 148.666 256.937 150.338 255.213C153.881 251.567 157.275 247.822 160.67 244.029C168.886 234.815 177.003 225.454 185.269 216.289C191.172 209.736 192.845 202.149 189.942 194.118C184.727 179.78 180.103 165.245 175.134 150.809C173.953 147.409 173.018 143.911 171.149 140.758C170.706 140.117 170.608 138.787 169.181 138.836Z" fill="#C87814"/>
<path d="M167.951 62.4665C171.149 58.377 175.626 56.4555 180.447 55.1252C196.535 50.6908 212.623 46.3057 228.759 42.0192C237.418 39.7528 245.044 41.5758 251.587 47.9317C263.69 59.7073 275.94 71.3352 288.092 83.0616C290.404 85.328 292.273 87.8901 293.11 91.0927C293.159 93.9011 291.339 94.0489 289.174 94.0489C287.747 94.0489 286.271 94.4431 284.845 94.8372C272.102 98.2369 259.36 101.587 246.716 105.184C239.288 107.253 231.367 108.19 225.07 113.314C218.133 112.575 212.573 109.471 207.9 104.297C204.751 100.848 201.258 97.7442 197.863 94.5416C189.008 86.1656 180.349 77.5433 171.739 68.9209C169.968 67.1472 168.345 65.1271 167.951 62.4665ZM217.739 93.9996C220.101 98.5818 224.381 99.6657 228.956 99.9614C231.81 100.158 234.712 99.9121 236.385 96.9559C236.533 95.1329 236.533 93.3591 234.909 92.0288C230.727 88.7277 226.103 87.4959 220.937 89.0233C218.28 89.8116 217.542 91.1419 217.739 93.9996ZM222.167 75.2768C224.184 79.4156 229.448 81.9283 234.958 81.3864C237.32 81.1893 239.681 80.8937 240.862 78.3316C241.846 76.5579 240.862 75.1783 239.78 73.9465C236.68 70.399 229.35 68.7238 225.02 70.5469C222.954 71.4337 221.675 72.8133 222.167 75.2768ZM228.612 55.5686C230.875 61.0869 241.354 64.0431 245.978 60.3971C246.716 59.8059 247.258 59.1161 247.356 58.18C247.848 56.6526 246.962 55.4701 246.126 54.4354C243.174 50.8879 235.45 49.262 231.219 51.1835C229.3 52.0211 228.12 53.3022 228.612 55.5686Z" fill="#FED17A"/>
<path d="M145.812 129.524C148.666 131.101 151.913 129.228 154.864 130.559C156.537 131.298 158.554 131.298 160.276 132.086C157.521 134.5 157.915 136.274 161.408 137.604C163.818 138.491 164.015 139.132 162.441 141.3C162.146 141.694 161.851 142.088 161.555 142.482C159.44 145.29 159.784 146.572 163.179 147.853C163.08 148.542 162.588 149.035 162.195 149.478C152.897 159.924 143.598 170.418 134.201 180.765C132.873 182.243 131.889 184.165 129.921 184.953C130.02 183.475 129.921 182.096 128.347 181.406C126.723 180.667 125.739 181.8 124.756 182.835C123.624 184.017 122.492 185.2 121.312 186.333C118.606 188.895 115.605 190.472 111.62 190.176C107.241 189.831 103.109 188.501 98.8776 187.614C95.6306 186.924 94.499 188.057 94.9418 191.408C94.5974 191.408 94.253 191.506 93.9578 191.408C79.9365 188.353 65.9152 185.298 51.8939 182.145C49.8276 181.701 47.8597 180.815 46.3838 179.139C46.8758 172.586 50.6148 167.807 54.8458 163.225C66.0628 150.957 77.1815 138.59 88.3985 126.272C89.5793 124.942 90.8092 123.562 92.6295 123.069C93.1707 122.971 93.8103 123.02 94.3022 122.823C98.976 120.803 103.797 120.704 108.717 121.739C113.686 122.774 118.606 123.956 123.575 124.942C130.954 126.469 138.285 128.391 145.812 129.524ZM103.453 176.38C103.601 176.528 103.797 176.725 103.945 176.873L103.896 176.971C104.437 177.809 105.273 178.105 106.159 178.302C110.882 179.238 115.014 177.908 118.557 174.656C120.229 173.128 120.967 171.207 120.18 168.891C119.639 167.462 118.409 166.772 117.032 166.477C111.964 165.344 107.635 166.871 104.043 170.468C102.567 171.946 101.977 173.818 102.961 175.887C103.158 176.035 103.305 176.183 103.453 176.38ZM109.455 131.445H109.504C109.357 130.756 108.816 130.362 108.274 129.967C104.043 127.11 94.3022 130.214 92.4819 134.993C91.6456 137.161 92.3343 138.639 94.6958 139.92C99.1728 141.743 105.962 139.871 108.816 136.028C109.75 134.796 110.242 133.466 109.849 131.889C109.652 131.741 109.553 131.593 109.455 131.445ZM96.1717 146.227H96.2209C96.0733 145.192 95.2862 144.749 94.4498 144.354C90.0712 142.137 81.7569 144.798 79.4938 149.084C78.2146 151.499 78.805 153.322 81.3633 154.701C85.9386 156.672 92.9739 154.652 95.7782 150.612C96.6145 149.38 96.8605 148.099 96.5653 146.67C96.5161 146.473 96.5161 146.227 96.1717 146.227ZM130.954 147.853C133.906 149.971 141.434 148.641 144.877 145.093C146.353 143.566 147.239 141.989 146.698 139.871C146.353 138.639 145.369 138.048 144.336 137.555C140.056 135.732 132.529 138.048 129.97 141.989C128.445 144.256 128.79 146.177 130.954 147.853ZM117.769 162.535C122.345 165.294 131.151 162.683 133.365 157.904C133.857 156.869 134.251 155.785 133.611 154.603C133.562 153.223 132.529 152.681 131.496 152.188C127.068 150.07 118.901 152.73 116.54 157.066C115.31 159.234 115.703 160.909 117.769 162.535ZM67.2928 168.891C71.6713 171.946 80.3793 169.827 83.0852 164.999C83.8231 163.718 84.1183 162.437 83.4788 161.008C83.036 159.579 81.9536 159.037 80.6253 158.594C76.2467 157.214 69.7526 159.283 66.9976 162.979C65.5216 164.999 65.62 166.92 67.2928 168.891Z" fill="#FED17A"/>
<path d="M129.872 185.003C131.84 184.165 132.824 182.293 134.152 180.815C143.549 170.419 152.847 159.973 162.146 149.528C162.589 149.035 163.081 148.592 163.13 147.902C166.426 145.783 168.345 142.679 169.132 138.886C170.509 138.886 170.657 140.167 171.149 141.004C173.018 144.158 173.953 147.656 175.134 151.055C180.103 165.492 184.727 180.026 189.942 194.364C192.845 202.395 191.222 209.983 185.269 216.536C176.954 225.7 168.886 235.062 160.67 244.275C157.275 248.069 153.881 251.814 150.338 255.46C148.666 257.184 146.747 258.613 144.189 258.761C140.007 256.199 137.399 252.405 135.874 247.872C130.659 232.647 125.494 217.423 120.328 202.198C119.491 199.784 118.95 197.32 118.753 194.758C122.837 192.344 126.478 189.437 129.429 185.693C129.774 185.643 129.872 185.496 129.823 185.151L129.872 185.003ZM151.765 201.065C151.716 202.247 151.913 203.331 152.208 204.465C153.339 208.603 156.734 209.589 159.735 206.534C162.097 204.12 163.572 201.262 163.966 197.912C164.261 195.547 163.818 193.33 162.195 191.507C160.227 189.191 158.112 189.043 155.848 191.162C152.995 193.822 152.011 197.32 151.765 201.065ZM179.758 207.125C179.808 208.948 180.004 210.821 182.12 211.215C184.137 211.56 184.973 209.934 185.613 208.406C186.449 206.534 186.843 204.514 186.056 202.494C185.269 200.424 183.694 200.03 182.022 201.459C180.3 202.987 179.808 205.007 179.758 207.125ZM170.903 213.875C170.952 212.348 170.165 211.018 169.23 210.968C167.902 210.87 166.032 213.678 166.082 215.698C166.131 216.881 166.475 218.014 167.951 218.162C169.427 218.211 170.903 216.043 170.903 213.875ZM184.088 192.295C183.842 191.309 183.596 190.127 182.218 189.93C180.89 189.733 179.217 192.344 179.365 194.463C179.463 195.744 179.808 196.976 181.431 196.976C182.76 196.926 184.137 194.512 184.088 192.295ZM173.412 221.808C173.314 220.724 173.363 219.246 171.739 218.901C170.509 218.655 168.984 220.97 169.033 222.99C169.033 224.271 168.837 225.799 170.706 226.045C172.034 226.242 173.363 224.271 173.412 221.808ZM175.872 203.282C175.724 202.297 176.265 200.769 174.396 200.572C172.969 200.424 171.444 202.592 171.444 204.76C171.444 205.992 171.592 207.372 173.068 207.667C174.396 207.963 175.872 205.598 175.872 203.282ZM155.652 238.363C155.75 239.348 155.553 240.826 157.078 240.728C159.145 240.58 159.341 238.658 159.538 237.082C159.686 235.85 159.194 234.47 157.767 234.717C155.947 235.012 155.799 236.737 155.652 238.363ZM158.161 227.671C158.161 229.1 158.456 230.48 159.883 230.332C161.801 230.135 161.9 228.213 162.047 226.735C162.146 225.7 162.195 224.271 160.768 224.321C158.554 224.321 158.702 226.39 158.161 227.671ZM167.508 229.346C167.459 228.016 167.213 226.735 165.885 226.883C164.114 227.08 163.622 228.558 163.622 230.135C163.622 231.268 163.523 232.845 165.048 232.795C167.115 232.746 167.066 230.627 167.508 229.346ZM177.84 213.333C177.741 212.249 177.938 211.116 176.561 210.968C175.38 210.87 173.855 213.186 173.953 214.959C174.002 216.043 174.494 217.176 175.577 217.029C177.594 216.733 177.741 214.91 177.84 213.333ZM175.38 190.866C175.331 188.994 174.986 188.304 174.101 188.304C172.92 188.255 171.395 190.373 171.592 191.999C171.69 192.985 171.838 194.512 173.166 194.364C175.183 194.069 175.281 192.196 175.38 190.866Z" fill="#DD8C14"/>
<path d="M225.07 113.314C231.367 108.19 239.288 107.303 246.716 105.184C259.409 101.587 272.152 98.2863 284.845 94.8374C286.271 94.4432 287.747 94.049 289.174 94.049C291.339 94.049 293.159 93.9012 293.11 91.0928C294.733 95.1823 294.832 99.4195 293.848 103.657C289.764 120.704 285.681 137.752 281.45 154.75C279.531 162.535 274.316 167.659 266.789 169.827C249.176 174.951 231.514 179.632 213.852 184.658C211.097 185.446 208.49 184.707 205.833 184.707C204.997 180.617 205.145 176.626 206.227 172.537C210.163 157.559 214.098 142.581 217.788 127.553C219.166 122.183 221.232 117.305 225.07 113.314ZM281.598 109.963C281.598 106.367 279.531 104.741 275.989 105.48C271.512 106.465 266.592 111.836 266.051 116.369C265.608 119.916 267.379 122.183 270.38 121.985C275.694 121.542 281.647 115.186 281.598 109.963ZM229.497 128.046C229.497 131.347 231.318 132.923 234.417 132.431C239.435 131.593 244.552 125.878 244.945 120.754C245.191 117.502 243.469 115.876 240.222 116.122C235.204 116.566 229.497 122.922 229.497 128.046ZM260.935 136.767C260.935 139.772 262.263 141.25 264.92 141.201C270.528 141.152 276.875 134.007 276.333 128.44C276.087 126.075 274.513 124.695 272.201 124.843C266.838 125.089 260.885 131.396 260.935 136.767ZM256.507 155.637C256.458 159.185 258.327 160.712 261.82 160.072C266.641 159.234 271.758 153.617 272.102 148.789C272.299 146.128 270.725 144.354 268.068 144.305C263.247 144.206 256.556 150.759 256.507 155.637ZM229.005 151.696C234.269 151.745 241.01 144.601 240.616 139.329C240.419 136.964 238.697 135.436 236.336 135.535C231.022 135.83 224.873 142.63 225.07 147.951C225.217 150.415 226.545 151.696 229.005 151.696ZM235.499 159.333C235.598 156.228 233.925 154.75 230.678 155.095C225.709 155.637 220.15 161.845 220.15 166.871C220.15 169.433 221.773 170.96 224.332 170.813C229.35 170.517 235.352 164.358 235.499 159.333ZM275.202 158.593C275.202 157.115 274.464 156.278 272.939 156.376C270.577 156.475 266.641 160.269 266.396 162.634C266.15 164.851 266.937 165.688 269.101 165.491C271.758 165.196 275.251 161.254 275.202 158.593ZM249.718 165.984C252.227 165.984 255.424 162.387 255.08 159.924C254.883 158.593 254.096 158.101 252.866 158.347C250.701 158.741 247.996 161.698 247.799 163.865C247.602 165.294 248.242 165.984 249.718 165.984ZM239.288 171.502C239.337 170.073 238.697 169.334 237.221 169.482C234.909 169.679 231.908 172.98 231.957 175.247C231.957 176.38 232.252 177.218 233.581 177.218C235.795 177.218 239.288 173.72 239.288 171.502ZM279.088 149.232C279.039 148.493 278.744 147.951 277.809 147.902C276.481 147.852 273.824 150.513 273.874 151.843C273.923 152.78 274.513 153.075 275.349 153.075C276.825 153.075 279.039 150.809 279.088 149.232ZM250.062 170.221C249.964 169.482 249.57 169.039 248.635 169.088C247.356 169.187 244.896 171.699 244.896 172.931C244.896 174.015 245.585 174.311 246.52 174.261C247.946 174.163 250.16 171.749 250.062 170.221ZM263.296 162.19C263.345 161.698 262.853 161.205 262.017 161.156C260.443 161.008 257.884 163.668 258.13 165.245C258.229 165.984 258.671 166.378 259.459 166.378C260.689 166.329 263.198 163.865 263.296 162.19ZM279.039 138.343C279.039 138.097 278.695 137.653 277.957 137.506C276.235 137.161 273.431 140.216 273.923 141.841C274.12 142.482 274.562 142.728 275.251 142.679C276.53 142.581 278.99 140.117 279.039 138.343ZM240.911 166.329C242.633 166.28 244.699 164.013 244.65 162.634C244.65 161.796 244.306 161.205 243.371 161.205C242.092 161.156 239.829 163.422 239.829 164.752C239.878 165.639 240.173 166.329 240.911 166.329Z" fill="#DD8C14"/>
<path d="M118.803 194.61C118.95 197.172 119.541 199.636 120.377 202.05C125.543 217.275 130.709 232.499 135.923 247.724C137.498 252.257 140.056 256.051 144.238 258.613C140.646 261.175 136.514 261.421 132.48 260.682C123.821 259.056 115.211 256.987 106.602 255.114C96.959 252.996 87.2671 250.877 77.6244 248.611C69.8511 246.788 64.587 241.959 62.0287 234.421C56.9122 219.443 51.8448 204.464 46.7283 189.535C45.7443 186.678 44.9572 183.771 45.0556 180.667C45.1048 179.681 45.2032 179.041 46.3839 179.287C47.8598 180.913 49.8277 181.8 51.894 182.293C65.9153 185.446 79.9366 188.501 93.958 191.555C94.2531 191.605 94.5975 191.555 94.9419 191.555C95.5323 192.147 96.1718 192.59 97.0082 192.787C100.501 193.576 103.994 194.512 107.487 195.201C111.226 195.842 115.064 195.891 118.803 194.61ZM101.042 195.546C98.7301 196.285 97.8446 197.665 98.2381 200.128C98.9269 204.76 104.486 210.081 109.16 210.426C111.128 210.574 112.948 210.278 113.489 207.864C113.637 207.47 113.883 207.125 113.883 206.731C113.686 200.966 106.799 194.955 101.042 195.546ZM87.8083 237.476C88.3986 236.983 88.3002 236.293 88.251 235.653C88.005 229.937 81.0682 224.025 75.3613 224.665C72.803 225.256 72.2618 227.079 72.6062 229.346C73.3934 234.076 78.8543 239.2 83.5773 239.643C85.4468 239.791 87.0703 239.446 87.8083 237.476ZM76.0008 200.03C76.5912 199.488 76.3944 198.847 76.2468 198.207C75.1153 193.231 71.8682 190.176 67.3913 188.254C66.0629 187.663 64.6362 187.22 63.1603 187.959C61.2908 188.55 60.7004 189.929 60.7496 191.752C60.848 196.778 67.3913 203.085 72.4094 202.937C74.2789 202.838 75.804 202.198 76.0008 200.03ZM125.74 245.359C126.724 241.565 124.608 238.954 122.197 236.638C119.787 234.273 117.179 232.007 113.293 232.992C111.03 233.288 110.39 234.815 110.439 236.835C110.587 242.058 117.425 248.266 122.591 247.822C124.214 247.675 125.494 247.133 125.74 245.359Z" fill="#F8C951"/>
<path d="M225.069 113.314C221.232 117.354 219.166 122.183 217.837 127.553C214.148 142.581 210.212 157.559 206.276 172.537C205.194 176.577 205.046 180.618 205.882 184.707C201.455 184.608 198.011 182.342 194.813 179.632C190.533 176.035 187.581 171.749 186.007 166.181C183.842 158.544 180.939 151.154 178.332 143.665C177.348 140.807 176.118 138.048 174.15 135.634C173.314 134.648 173.018 133.564 173.117 132.234C173.314 128.933 172.92 125.681 170.657 123.02C170.608 122.922 170.509 122.774 170.46 122.675C170.313 122.478 170.165 122.281 170.017 122.084C168.689 120.409 167.115 118.98 164.802 119.621C162.392 120.31 161.801 122.429 161.555 124.646C161.506 124.893 161.506 125.139 161.506 125.385C161.113 126.026 160.571 126.124 159.833 125.927C157.029 125.237 154.274 124.548 151.47 124.055C149.945 123.759 149.896 123.07 150.24 121.838C154.717 104.642 159.096 87.3977 163.622 70.2023C164.409 67.246 165.786 64.5361 168.099 62.4175C168.492 65.0781 170.116 67.0982 171.887 68.872C180.546 77.4943 189.155 86.1166 198.011 94.4926C201.405 97.6952 204.898 100.799 208.047 104.248C212.573 109.422 218.133 112.575 225.069 113.314ZM184.186 131.002C184.334 131.248 184.531 131.495 184.678 131.79C188.368 133.219 190.631 132.382 191.418 128.883C192.353 124.498 191.812 120.31 188.811 116.714C185.908 113.215 182.956 112.871 181.136 115.925C178.676 120.015 180.349 128.144 184.186 131.051V131.002ZM203.373 124.597C203.521 124.745 203.669 124.893 203.816 125.04C207.555 126.568 209.966 125.632 210.655 121.986C211.491 117.601 210.999 113.363 207.85 109.816C206.571 108.19 205.095 106.909 202.881 107.254C201.012 107.549 200.077 109.027 199.684 110.653C198.404 115.975 199.438 120.705 203.423 124.646L203.373 124.597ZM193.534 163.324C197.765 164.752 199.831 164.112 200.667 160.712C201.651 156.623 201.258 152.583 198.552 149.084C197.224 147.114 195.748 145.34 193.091 145.635C191.025 145.882 190.09 147.606 189.696 149.38C188.663 154.603 189.696 159.333 193.534 163.324ZM179.955 83.1604C178.676 81.4359 177.102 80.0564 174.839 80.5491C172.723 80.9925 171.838 82.8155 171.592 84.7371C170.903 89.5656 171.788 93.9999 175.331 97.5967C178.184 100.208 181.431 99.5675 182.563 95.9707C184.039 91.29 183.006 87.0035 179.955 83.1604Z" fill="#F8C951"/>
<path d="M169.181 138.836C168.394 142.63 166.475 145.734 163.179 147.853C159.834 146.572 159.44 145.291 161.555 142.482C161.851 142.088 162.146 141.743 162.441 141.3C163.966 139.132 163.819 138.491 161.408 137.604C157.866 136.274 157.521 134.5 160.276 132.086C164.999 132.185 168.246 134.599 169.181 138.836Z" fill="white"/>
<path d="M145.812 129.524C138.285 128.391 130.954 126.469 123.526 124.991C118.557 124.006 113.637 122.823 108.668 121.788C103.748 120.754 98.9269 120.852 94.2531 122.872C93.7611 123.069 93.1708 123.069 92.5804 123.119C97.4509 119.768 102.863 119.079 108.52 120.31C120.328 122.872 132.135 125.484 143.943 128.046C144.828 128.243 145.861 128.194 145.812 129.524Z" fill="white"/>
<path d="M170.362 122.725C170.411 122.823 170.509 122.971 170.559 123.069C168.591 123.464 167.115 124.498 165.786 126.075C164.114 128.095 162.539 127.799 161.408 125.434C161.408 125.188 161.457 124.942 161.457 124.695C161.703 122.478 162.293 120.36 164.704 119.67C167.016 118.98 168.591 120.409 169.919 122.133C170.067 122.33 170.214 122.527 170.362 122.725Z" fill="#8E3F14"/>
<path d="M247.307 58.1803C247.208 59.1657 246.667 59.8555 245.929 60.3975C241.305 63.9942 230.826 61.0873 228.562 55.569C230.53 53.746 232.843 53.204 235.499 53.1055C240.37 52.9084 244.01 55.027 247.307 58.1803Z" fill="#DD8C14"/>
<path d="M240.862 78.3315C239.681 80.8936 237.32 81.1399 234.958 81.3863C229.448 81.879 224.184 79.3662 222.167 75.2767C226.988 70.6946 237.615 72.7147 240.862 78.3315Z" fill="#DD8C14"/>
<path d="M236.336 96.9561C234.663 99.9123 231.81 100.159 228.907 99.9616C224.332 99.666 220.051 98.582 217.69 93.9998C222.314 89.7133 232.498 91.0929 236.336 96.9561Z" fill="#DD8C14"/>
<path d="M236.336 96.9559C232.498 91.0928 222.265 89.7132 217.69 93.9997C217.493 91.142 218.231 89.8117 220.888 89.0234C226.054 87.496 230.678 88.7278 234.86 92.0289C236.533 93.3592 236.533 95.1329 236.336 96.9559Z" fill="#C87814"/>
<path d="M240.862 78.3317C237.615 72.7149 226.988 70.6455 222.167 75.277C221.675 72.8134 222.954 71.4339 225.07 70.547C229.399 68.724 236.729 70.3992 239.829 73.9467C240.862 75.1784 241.846 76.558 240.862 78.3317Z" fill="#C87814"/>
<path d="M247.307 58.1801C244.011 55.0267 240.321 52.9081 235.549 53.1052C232.892 53.2037 230.53 53.7457 228.612 55.5687C228.12 53.3023 229.3 52.0212 231.17 51.1836C235.401 49.2621 243.125 50.9373 246.077 54.4355C246.962 55.4702 247.848 56.6527 247.307 58.1801Z" fill="#C87814"/>
<path d="M118.803 194.61C115.064 195.891 111.226 195.793 107.438 195.054C103.945 194.364 100.452 193.428 96.959 192.639C96.1226 192.442 95.483 191.999 94.8927 191.408C94.4499 188.057 95.5814 186.973 98.8285 187.614C103.059 188.501 107.192 189.831 111.571 190.176C115.556 190.472 118.557 188.895 121.263 186.333C122.443 185.2 123.575 184.017 124.706 182.835C125.69 181.8 126.625 180.716 128.298 181.406C129.872 182.096 129.971 183.475 129.872 184.953V185.003C129.725 185.2 129.626 185.347 129.479 185.544C126.527 189.338 122.886 192.196 118.803 194.61Z" fill="white"/>
<path d="M120.18 168.891C120.967 171.207 120.229 173.128 118.557 174.656C115.064 177.908 110.931 179.238 106.159 178.302C105.273 178.105 104.437 177.809 103.896 176.972C104.585 176.775 104.929 176.233 105.175 175.592C106.011 173.326 107.684 171.946 109.701 170.665C113.047 168.596 116.638 168.99 120.18 168.891Z" fill="#DD8C14"/>
<path d="M83.4788 161.008C84.1184 162.387 83.8232 163.718 83.0853 164.999C80.3302 169.827 71.6714 171.946 67.2928 168.891C68.08 168.891 68.4244 168.546 68.6212 167.758C69.3099 165.196 71.1303 163.718 73.3933 162.535C76.5912 160.958 79.9366 160.219 83.4788 161.008Z" fill="#DD8C14"/>
<path d="M133.562 154.603C134.251 155.736 133.808 156.82 133.316 157.904C131.151 162.683 122.296 165.294 117.72 162.535C119.393 161.796 118.704 159.776 119.885 158.594C123.772 154.751 128.249 153.272 133.562 154.603Z" fill="#DD8C14"/>
<path d="M96.5655 146.719C96.8606 148.148 96.6147 149.429 95.7783 150.661C92.974 154.701 85.9388 156.721 81.3634 154.75C81.4126 152.139 82.7409 150.316 84.758 148.788C88.2019 146.177 92.2361 146.177 96.2211 146.226H96.1719C96.3195 146.374 96.4179 146.571 96.5655 146.719Z" fill="#DD8C14"/>
<path d="M146.698 139.821C147.239 141.94 146.353 143.566 144.877 145.044C141.434 148.641 133.906 149.971 130.954 147.803C134.497 140.856 139.023 138.59 146.698 139.821Z" fill="#DD8C14"/>
<path d="M109.8 131.889C110.193 133.466 109.701 134.796 108.766 136.028C105.913 139.871 99.1729 141.743 94.6467 139.92C94.5975 137.309 95.9258 135.535 98.0413 134.106C101.534 131.741 105.421 131.248 109.455 131.446H109.406C109.554 131.593 109.652 131.741 109.8 131.889Z" fill="#DD8C14"/>
<path d="M133.562 154.602C128.249 153.272 123.772 154.75 119.934 158.593C118.754 159.776 119.491 161.747 117.77 162.535C115.703 160.909 115.31 159.283 116.49 157.066C118.803 152.779 127.019 150.069 131.446 152.188C132.48 152.681 133.513 153.272 133.562 154.602Z" fill="#C87814"/>
<path d="M120.18 168.891C116.589 168.99 113.047 168.596 109.701 170.665C107.684 171.897 105.962 173.326 105.175 175.592C104.929 176.233 104.585 176.774 103.896 176.972L103.945 176.873C103.797 176.725 103.601 176.528 103.453 176.38C103.256 176.233 103.109 176.035 102.912 175.888C101.928 173.818 102.518 171.946 103.994 170.468C107.586 166.871 111.915 165.344 116.982 166.477C118.458 166.773 119.639 167.462 120.18 168.891Z" fill="#C87814"/>
<path d="M96.221 146.226C92.1868 146.177 88.2018 146.177 84.758 148.788C82.7409 150.316 81.4126 152.139 81.3634 154.75C78.8543 153.321 78.2639 151.498 79.4939 149.133C81.757 144.798 90.0713 142.186 94.4499 144.403C95.2863 144.748 96.0735 145.192 96.221 146.226Z" fill="#C87814"/>
<path d="M83.4788 161.008C79.8874 160.17 76.5912 160.958 73.3933 162.584C71.1303 163.718 69.3099 165.245 68.6212 167.807C68.4244 168.546 68.0308 168.94 67.2928 168.94C65.6201 166.969 65.5217 165.048 66.9977 163.028C69.7527 159.332 76.2468 157.263 80.6254 158.643C81.9537 159.037 83.0853 159.579 83.4788 161.008Z" fill="#C87814"/>
<path d="M146.698 139.821C139.023 138.54 134.497 140.856 130.955 147.852C128.79 146.177 128.445 144.256 129.971 141.94C132.529 138.047 140.056 135.682 144.336 137.505C145.419 137.998 146.353 138.639 146.698 139.821Z" fill="#C87814"/>
<path d="M109.504 131.446C105.421 131.248 101.584 131.741 98.0905 134.106C95.975 135.535 94.6467 137.309 94.6959 139.92C92.3344 138.639 91.6456 137.161 92.482 134.993C94.3023 130.214 104.093 127.11 108.274 129.967C108.816 130.362 109.308 130.756 109.504 131.446Z" fill="#C87814"/>
<path d="M102.961 175.887C103.158 176.035 103.305 176.232 103.502 176.38C103.305 176.183 103.158 176.035 102.961 175.887Z" fill="#DD8C14"/>
<path d="M103.453 176.38C103.601 176.528 103.797 176.725 103.945 176.873C103.797 176.725 103.65 176.528 103.453 176.38Z" fill="#DD8C14"/>
<path d="M96.5653 146.719C96.4177 146.571 96.3193 146.424 96.1718 146.226C96.5161 146.226 96.5161 146.473 96.5653 146.719Z" fill="#C87814"/>
<path d="M109.8 131.889C109.701 131.741 109.554 131.593 109.455 131.445C109.554 131.593 109.652 131.741 109.8 131.889Z" fill="#C87814"/>
<path d="M151.765 201.065C152.011 197.32 152.995 193.822 155.848 191.112C158.062 188.994 160.178 189.141 162.195 191.457C163.819 193.329 164.261 195.497 163.966 197.862C163.573 201.213 162.047 204.12 159.735 206.485C156.734 209.539 153.339 208.603 152.208 204.415C151.913 203.331 151.716 202.247 151.765 201.065Z" fill="#8E3F14"/>
<path d="M179.758 207.125C179.808 205.006 180.3 202.937 182.022 201.459C183.694 200.03 185.269 200.424 186.056 202.493C186.843 204.513 186.449 206.534 185.613 208.406C184.973 209.933 184.137 211.559 182.12 211.214C180.004 210.82 179.857 208.948 179.758 207.125Z" fill="#DD8C14"/>
<path d="M170.903 213.875C170.854 216.043 169.427 218.211 168 218.112C166.524 218.014 166.18 216.881 166.131 215.649C166.032 213.579 167.951 210.82 169.279 210.919C170.165 211.017 170.952 212.348 170.903 213.875Z" fill="#DD8C14"/>
<path d="M184.088 192.294C184.137 194.561 182.76 196.926 181.431 196.975C179.808 196.975 179.463 195.743 179.365 194.462C179.217 192.343 180.89 189.732 182.218 189.929C183.596 190.077 183.842 191.309 184.088 192.294Z" fill="#DD8C14"/>
<path d="M173.412 221.807C173.363 224.271 172.084 226.242 170.657 226.045C168.837 225.798 169.033 224.271 168.984 222.99C168.984 220.97 170.509 218.605 171.69 218.9C173.363 219.245 173.314 220.723 173.412 221.807Z" fill="#DD8C14"/>
<path d="M175.872 203.282C175.872 205.598 174.396 207.963 173.117 207.667C171.592 207.371 171.493 205.992 171.493 204.76C171.493 202.543 173.018 200.375 174.445 200.572C176.266 200.769 175.724 202.297 175.872 203.282Z" fill="#DD8C14"/>
<path d="M155.652 238.363C155.75 236.737 155.947 234.963 157.816 234.667C159.243 234.421 159.735 235.8 159.587 237.032C159.391 238.609 159.194 240.53 157.128 240.678C155.602 240.826 155.75 239.397 155.652 238.363Z" fill="#DD8C14"/>
<path d="M158.161 227.671C158.702 226.39 158.554 224.321 160.768 224.271C162.244 224.222 162.195 225.651 162.047 226.686C161.851 228.213 161.801 230.085 159.883 230.282C158.456 230.479 158.161 229.1 158.161 227.671Z" fill="#DD8C14"/>
<path d="M167.508 229.346C167.065 230.676 167.115 232.746 164.999 232.844C163.523 232.894 163.572 231.317 163.572 230.184C163.572 228.607 164.064 227.08 165.836 226.932C167.213 226.735 167.41 228.016 167.508 229.346Z" fill="#DD8C14"/>
<path d="M177.84 213.333C177.741 214.91 177.594 216.684 175.577 216.979C174.494 217.127 174.002 215.994 173.953 214.91C173.904 213.136 175.38 210.82 176.561 210.919C177.938 211.116 177.741 212.299 177.84 213.333Z" fill="#DD8C14"/>
<path d="M175.38 190.865C175.281 192.196 175.183 194.068 173.166 194.314C171.838 194.511 171.739 192.935 171.592 191.949C171.395 190.323 172.969 188.205 174.101 188.254C174.986 188.353 175.331 188.993 175.38 190.865Z" fill="#DD8C14"/>
<path d="M129.479 185.594C129.626 185.397 129.725 185.249 129.872 185.052C129.971 185.397 129.823 185.544 129.479 185.594Z" fill="#FED17A"/>
<path d="M281.597 109.963C281.597 115.235 275.694 121.542 270.38 121.986C267.379 122.232 265.608 119.965 266.051 116.369C266.592 111.836 271.512 106.465 275.989 105.48C279.531 104.692 281.597 106.367 281.597 109.963Z" fill="#8E3F14"/>
<path d="M229.497 128.046C229.497 122.922 235.204 116.566 240.222 116.172C243.469 115.876 245.191 117.551 244.945 120.803C244.601 125.927 239.435 131.643 234.417 132.48C231.318 132.924 229.546 131.347 229.497 128.046Z" fill="#8E3F14"/>
<path d="M260.935 136.767C260.885 131.445 266.838 125.09 272.152 124.843C274.464 124.745 276.038 126.075 276.284 128.44C276.825 134.008 270.479 141.152 264.87 141.201C262.263 141.201 260.935 139.723 260.935 136.767Z" fill="#8E3F14"/>
<path d="M256.507 155.637C256.556 150.76 263.247 144.207 268.117 144.305C270.774 144.354 272.348 146.079 272.152 148.789C271.807 153.667 266.691 159.283 261.869 160.072C258.327 160.663 256.507 159.136 256.507 155.637Z" fill="#8E3F14"/>
<path d="M229.005 151.696C226.545 151.696 225.168 150.415 225.069 148C224.823 142.63 230.973 135.83 236.336 135.584C238.648 135.486 240.419 137.013 240.616 139.378C241.009 144.601 234.319 151.745 229.005 151.696Z" fill="#8E3F14"/>
<path d="M235.499 159.332C235.352 164.309 229.35 170.468 224.332 170.813C221.773 170.96 220.15 169.433 220.15 166.871C220.15 161.895 225.709 155.686 230.678 155.095C233.925 154.75 235.598 156.228 235.499 159.332Z" fill="#8E3F14"/>
<path d="M275.202 158.594C275.251 161.254 271.709 165.196 269.101 165.442C266.887 165.639 266.1 164.851 266.395 162.585C266.691 160.22 270.626 156.426 272.939 156.327C274.464 156.327 275.202 157.116 275.202 158.594Z" fill="#DD8C14"/>
<path d="M249.717 165.984C248.241 166.033 247.602 165.294 247.749 163.866C247.995 161.698 250.652 158.741 252.817 158.347C254.096 158.101 254.834 158.594 255.031 159.924C255.375 162.338 252.226 165.935 249.717 165.984Z" fill="#DD8C14"/>
<path d="M239.287 171.502C239.287 173.72 235.794 177.218 233.581 177.218C232.252 177.218 231.957 176.38 231.957 175.247C231.957 172.931 234.958 169.679 237.221 169.482C238.697 169.335 239.386 170.074 239.287 171.502Z" fill="#DD8C14"/>
<path d="M279.088 149.232C279.039 150.809 276.776 153.124 275.349 153.124C274.513 153.124 273.923 152.829 273.873 151.892C273.824 150.562 276.481 147.902 277.809 147.951C278.744 147.902 279.088 148.493 279.088 149.232Z" fill="#DD8C14"/>
<path d="M250.062 170.221C250.16 171.748 247.946 174.163 246.52 174.261C245.585 174.311 244.896 174.015 244.896 172.931C244.896 171.699 247.356 169.186 248.635 169.088C249.57 169.039 249.963 169.482 250.062 170.221Z" fill="#DD8C14"/>
<path d="M263.296 162.19C263.198 163.866 260.688 166.329 259.409 166.378C258.622 166.378 258.179 165.984 258.081 165.245C257.835 163.718 260.393 161.008 261.968 161.156C262.902 161.205 263.345 161.649 263.296 162.19Z" fill="#DD8C14"/>
<path d="M279.039 138.343C278.99 140.117 276.53 142.58 275.251 142.679C274.611 142.728 274.119 142.482 273.923 141.841C273.381 140.166 276.186 137.111 277.957 137.506C278.695 137.653 279.039 138.097 279.039 138.343Z" fill="#DD8C14"/>
<path d="M240.911 166.329C240.173 166.329 239.878 165.639 239.878 164.752C239.878 163.422 242.092 161.155 243.42 161.205C244.355 161.254 244.699 161.796 244.699 162.633C244.699 164.062 242.633 166.279 240.911 166.329Z" fill="#DD8C14"/>
<path d="M113.342 232.992C117.179 232.007 119.836 234.273 122.247 236.638C124.608 238.954 126.773 241.565 125.789 245.359C118.999 245.26 113.293 239.594 113.342 232.992Z" fill="#C87814"/>
<path d="M63.1603 187.959C64.6362 187.22 66.0629 187.712 67.3913 188.254C71.8683 190.176 75.1153 193.231 76.2468 198.207C76.3944 198.848 76.5912 199.488 76.0008 200.03C69.2608 200.079 63.7015 194.857 63.1603 187.959Z" fill="#C87814"/>
<path d="M75.4105 224.665C81.0682 224.025 88.005 229.937 88.3002 235.653C88.3494 236.293 88.3986 236.983 87.8574 237.476C87.4147 237.328 86.9719 237.082 86.4799 236.983C80.3794 236.195 75.5089 230.824 75.4105 224.665Z" fill="#C87814"/>
<path d="M101.042 195.546C106.848 194.955 113.735 200.966 113.834 206.78C113.834 207.174 113.588 207.519 113.44 207.913C106.7 207.815 101.042 202.198 101.042 195.546Z" fill="#C87814"/>
<path d="M75.4105 224.665C75.5089 230.824 80.3302 236.195 86.4799 236.983C86.9227 237.032 87.3655 237.278 87.8575 237.476C87.1195 239.446 85.4468 239.791 83.6757 239.643C78.9527 239.2 73.4918 234.076 72.7046 229.346C72.311 227.129 72.8522 225.256 75.4105 224.665Z" fill="#8E3F14"/>
<path d="M101.042 195.546C101.092 202.198 106.7 207.815 113.44 207.864C112.899 210.278 111.079 210.574 109.111 210.426C104.437 210.081 98.8776 204.76 98.1889 200.128C97.8445 197.714 98.6808 196.335 101.042 195.546Z" fill="#8E3F14"/>
<path d="M63.1602 187.958C63.7014 194.906 69.2607 200.128 76.0008 200.03C75.7548 202.198 74.2788 202.838 72.4093 202.887C67.3912 203.035 60.8479 196.729 60.7495 191.703C60.7003 189.929 61.2907 188.5 63.1602 187.958Z" fill="#8E3F14"/>
<path d="M113.342 232.992C113.293 239.594 118.999 245.261 125.74 245.359C125.494 247.182 124.214 247.724 122.591 247.823C117.425 248.266 110.537 242.058 110.439 236.835C110.439 234.815 111.079 233.288 113.342 232.992Z" fill="#8E3F14"/>
<path d="M179.955 83.1604C183.055 86.9542 184.088 91.2408 182.612 95.9707C181.48 99.5675 178.233 100.208 175.38 97.5967C174.937 95.7737 174.445 93.9507 174.101 92.1276C173.018 86.8064 175.331 83.3082 179.955 83.1604Z" fill="#C87814"/>
<path d="M207.801 109.766C210.95 113.314 211.491 117.551 210.605 121.936C209.917 125.582 207.555 126.518 203.767 124.991C203.619 124.843 203.472 124.695 203.324 124.547V124.597C202.586 121.591 201.553 118.684 201.848 115.482C202.143 112.131 203.373 110.653 206.67 110.21C207.112 110.21 207.457 109.963 207.801 109.766Z" fill="#C87814"/>
<path d="M188.811 116.664C191.861 120.261 192.353 124.449 191.418 128.834C190.68 132.332 188.368 133.17 184.678 131.741C184.531 131.495 184.334 131.248 184.186 130.953V131.002C183.645 128.243 182.415 125.582 182.71 122.626C183.104 118.586 184.777 116.812 188.811 116.664Z" fill="#C87814"/>
<path d="M198.601 149.035C201.307 152.533 201.701 156.574 200.717 160.663C199.88 164.112 197.814 164.752 193.583 163.274C193.189 160.466 191.91 157.855 192.058 154.849C192.304 150.267 194.075 148.542 198.601 149.035Z" fill="#C87814"/>
<path d="M198.601 149.035C194.075 148.542 192.304 150.267 192.058 154.898C191.861 157.854 193.189 160.466 193.583 163.323C189.696 159.382 188.663 154.603 189.795 149.331C190.188 147.508 191.123 145.832 193.189 145.586C195.797 145.241 197.273 147.064 198.601 149.035Z" fill="#8E3F14"/>
<path d="M207.801 109.766C207.457 109.914 207.063 110.16 206.719 110.21C203.423 110.653 202.193 112.131 201.897 115.482C201.602 118.684 202.685 121.591 203.373 124.597C199.388 120.655 198.355 115.876 199.634 110.604C200.028 108.978 200.913 107.5 202.832 107.204C205.095 106.909 206.571 108.19 207.801 109.766Z" fill="#8E3F14"/>
<path d="M188.811 116.664C184.777 116.812 183.104 118.586 182.71 122.675C182.464 125.631 183.645 128.243 184.186 131.051C180.3 128.095 178.676 119.965 181.136 115.925C182.956 112.87 185.957 113.166 188.811 116.664Z" fill="#8E3F14"/>
<path d="M179.955 83.1602C175.331 83.308 173.018 86.8062 174.052 92.1275C174.396 93.9505 174.888 95.7735 175.331 97.5965C171.739 93.9997 170.854 89.5654 171.592 84.7369C171.887 82.8153 172.723 80.9923 174.839 80.5489C177.102 80.1055 178.676 81.4358 179.955 83.1602Z" fill="#8E3F14"/>
<path d="M170.362 122.725C170.214 122.527 170.067 122.33 169.919 122.133C170.067 122.33 170.214 122.527 170.362 122.725Z" fill="#C87814"/>
<path d="M203.373 124.597C203.521 124.745 203.669 124.892 203.816 125.04C203.669 124.892 203.521 124.745 203.373 124.597Z" fill="#8E3F14"/>
<path d="M184.186 131.002C184.334 131.248 184.531 131.495 184.678 131.79C184.531 131.495 184.383 131.248 184.186 131.002Z" fill="#8E3F14"/>
<defs>
<filter id="filter0_d_106_107" x="15" y="0" width="338.556" height="310" filterUnits="userSpaceOnUse" color-interpolation-filters="sRGB">
<feFlood flood-opacity="0" result="BackgroundImageFix"/>
<feColorMatrix in="SourceAlpha" type="matrix" values="0 0 0 0 0 0 0 0 0 0 0 0 0 0 0 0 0 0 127 0" result="hardAlpha"/>
<feOffset dx="14" dy="4"/>
<feGaussianBlur stdDeviation="20"/>
<feComposite in2="hardAlpha" operator="out"/>
<feColorMatrix type="matrix" values="0 0 0 0 0 0 0 0 0 0 0 0 0 0 0 0 0 0 0.55 0"/>
<feBlend mode="normal" in2="BackgroundImageFix" result="effect1_dropShadow_106_107"/>
<feBlend mode="normal" in="SourceGraphic" in2="effect1_dropShadow_106_107" result="shape"/>
</filter>
<filter id="filter1_f_106_107" x="75" y="64" width="22" height="22" filterUnits="userSpaceOnUse" color-interpolation-filters="sRGB">
<feFlood flood-opacity="0" result="BackgroundImageFix"/>
<feBlend mode="normal" in="SourceGraphic" in2="BackgroundImageFix" result="shape"/>
<feGaussianBlur stdDeviation="2" result="effect1_foregroundBlur_106_107"/>
</filter>
<filter id="filter2_f_106_107" x="0" y="231" width="15" height="15" filterUnits="userSpaceOnUse" color-interpolation-filters="sRGB">
<feFlood flood-opacity="0" result="BackgroundImageFix"/>
<feBlend mode="normal" in="SourceGraphic" in2="BackgroundImageFix" result="shape"/>
<feGaussianBlur stdDeviation="2" result="effect1_foregroundBlur_106_107"/>
</filter>
<filter id="filter3_f_106_107" x="204" y="243" width="11" height="11" filterUnits="userSpaceOnUse" color-interpolation-filters="sRGB">
<feFlood flood-opacity="0" result="BackgroundImageFix"/>
<feBlend mode="normal" in="SourceGraphic" in2="BackgroundImageFix" result="shape"/>
<feGaussianBlur stdDeviation="2" result="effect1_foregroundBlur_106_107"/>
</filter>
<linearGradient id="paint0_linear_106_107" x1="230.163" y1="41.3" x2="230.163" y2="113.387" gradientUnits="userSpaceOnUse">
<stop offset="0.190048" stop-color="#F7F1FE"/>
<stop offset="0.522979" stop-color="#EDCEFE"/>
<stop offset="1" stop-color="#E8BEFF"/>
</linearGradient>
<linearGradient id="paint1_linear_106_107" x1="154.828" y1="138.909" x2="154.828" y2="258.551" gradientUnits="userSpaceOnUse">
<stop offset="0.10106" stop-color="#6B4AA3"/>
<stop offset="1" stop-color="#7138C9"/>
</linearGradient>
<linearGradient id="paint2_linear_106_107" x1="226.778" y1="119" x2="249.483" y2="184.955" gradientUnits="userSpaceOnUse">
<stop stop-color="#6B4AA4"/>
<stop offset="1" stop-color="#791FF6"/>
</linearGradient>
<linearGradient id="paint3_linear_106_107" x1="122.778" y1="193" x2="76.7781" y2="261" gradientUnits="userSpaceOnUse">
<stop offset="0.302671" stop-color="#7422FC"/>
<stop offset="1" stop-color="#C278DF"/>
</linearGradient>
<radialGradient id="paint4_radial_106_107" cx="0" cy="0" r="1" gradientUnits="userSpaceOnUse" gradientTransform="translate(179.778 83.5) rotate(80.5908) scale(88.6933 54.3985)">
<stop offset="0.194559" stop-color="#D7A4FE"/>
<stop offset="0.801923" stop-color="#8235EF"/>
<stop offset="0.893269" stop-color="#8235EF"/>
</radialGradient>
</defs>
</svg>
